<?xml version="1.0" encoding="UTF-8"?><svg width="200" height="200" viewBox="0 0 200 200" fill="none" version="1.1" xmlns="http://www.w3.org/2000/svg" xmlns:svg="http://www.w3.org/2000/svg"><g id="background"><rect fill="#2db56f" id="rect1477" width="200" height="200" x="0" y="0" /></g><g id="logo"><g clip-path="url(#clip0-3)" id="g838" transform="matrix(2.6216172,0,0,2.6216172,38.350931,40.085855)"><path d="m 41.6623,33.0801 c -7.8411,7.8625 -20.5991,7.8625 -28.4401,0 -7.841,-7.8628 -7.841,-20.6561 0,-28.51882 L 8.4826,-0.19191 c -10.47143,10.50041 -10.47143,27.52471 0,38.02461 10.4714,10.5 27.4487,10.5002 37.9197,0 z" fill="#ffffff" id="path826" /><path d="m 34.2912,32.297 c 0.9278,-0.4741 0.9133,-2.3666 -0.032,-4.2273 -0.9455,-1.8606 -2.4642,-2.9847 -3.3917,-2.5106 -0.9278,0.474 -0.9135,2.3667 0.032,4.2274 0.9453,1.8607 2.464,2.9846 3.3917,2.5105 z" fill="#ffffff" id="path828" /><path d="m 14.0056,11.9554 c -0.4727,0.9303 0.6482,2.4531 2.5038,3.4011 1.8555,0.9481 3.7429,0.9625 4.2156,0.0322 0.4728,-0.9303 -0.6482,-2.4531 -2.5037,-3.4011 -1.8555,-0.9481 -3.743,-0.9625 -4.2157,-0.0322 z" fill="#ffffff" id="path830" /><path d="m 16.7761,29.5145 c 0.7361,0.7384 2.5268,0.1401 3.9996,-1.3364 1.4727,-1.4763 2.0698,-3.2718 1.3337,-4.0102 -0.7362,-0.7384 -2.5269,-0.1401 -3.9996,1.3363 -1.4728,1.4764 -2.0699,3.2719 -1.3337,4.0103 z" fill="#ffffff" id="path832" /><path d="m 25.0855,33.7601 c 1.0285,0.1634 2.1262,-1.3765 2.4519,-3.4389 0.3256,-2.0625 -0.2439,-3.867 -1.2724,-4.0303 -1.0284,-0.1633 -2.1262,1.3763 -2.4519,3.4388 -0.3257,2.0628 0.244,3.8673 1.2724,4.0304 z" fill="#ffffff" id="path834" /><path d="m 12.5459,21.1847 c 0.1627,1.0313 1.9621,1.6027 4.019,1.2763 2.0569,-0.3264 3.5924,-1.427 3.4296,-2.4583 -0.1627,-1.0313 -1.9621,-1.6027 -4.019,-1.2763 -2.0568,0.3264 -3.5924,1.427 -3.4296,2.4583 z" fill="#ffffff" id="path836" /></g></g><defs id="defs843"><clipPath id="clip0"><rect width="175" height="51" fill="#ffffff" id="rect840" x="0" y="0" /></clipPath><clipPath id="clip0-3"><rect width="175" height="51" fill="#ffffff" id="rect840-8" x="0" y="0" /></clipPath></defs></svg>
