<svg xmlns="http://www.w3.org/2000/svg" width="192" height="72" viewBox="0 0 192 72" fill="none"><path d="M0.28418 12.3648V0.264648H54.0348V11.2648C39.668 28.6317 31.7512 48.8652 30.2845 71.9655H14.7344C16.101 49.5319 23.6011 29.665 37.2346 12.3648H0.28418Z" fill="#F0F3FF"></path><path fill-rule="evenodd" clip-rule="evenodd" d="M89.7297 0.264648H60.8794V71.9655H89.8297C90.1663 71.9655 90.5007 71.9621 90.833 71.9554L90.8037 71.9655H156.361C170.029 71.9655 182.464 64.0625 188.267 51.6879C192.866 41.8814 192.866 30.5377 188.267 20.7312C182.464 8.35659 170.029 0.45354 156.361 0.45354H93.9758C92.5991 0.327612 91.1838 0.264648 89.7297 0.264648ZM89.7297 59.8654H75.6295V12.3648H89.7297C95.8964 12.3648 100.763 14.5148 104.33 18.8149C107.93 23.0816 109.73 28.7817 109.73 35.9151C109.73 43.2152 107.863 49.0319 104.13 53.3653C100.396 57.6987 95.5964 59.8654 89.7297 59.8654ZM179.837 25.6851C181.824 23.5656 181.716 20.2366 179.597 18.2496C177.477 16.2626 174.148 16.3699 172.161 18.4894L149.402 42.7658L133.947 28.7157C131.797 26.7614 128.47 26.9199 126.516 29.0696C124.562 31.2193 124.72 34.5463 126.87 36.5005L146.158 54.0353C148.285 55.9685 151.569 55.8373 153.535 53.7408L179.837 25.6851Z" fill="#F0F3FF"></path></svg>