<svg xmlns="http://www.w3.org/2000/svg" width="283" height="290" viewBox="0 0 283 290" fill="none"><path d="M250.65 24.0377C249.813 11.2159 235.13 4.3911 224.789 12.0179L114.19 93.5895C101.447 102.988 108.301 123.203 124.132 122.915L166.307 122.146C180.961 121.879 194.924 128.369 204.168 139.743L230.77 172.479C240.756 184.767 260.628 176.973 259.597 161.173L250.65 24.0377Z" fill="url(#paint0_radial_1613_78)"></path><path d="M201.135 152.179C204.153 150.741 207.764 152.023 209.202 155.04L222.469 182.896C223.906 185.914 222.625 189.526 219.607 190.963L191.751 204.23C188.733 205.667 185.122 204.386 183.684 201.368L170.417 173.512C168.98 170.494 170.261 166.883 173.279 165.446L201.135 152.179Z" fill="url(#paint1_radial_1613_78)"></path><path d="M129.534 134.607C130.762 132.782 133.237 132.298 135.061 133.526L151.906 144.86C153.731 146.088 154.214 148.563 152.987 150.388L141.652 167.232C140.424 169.057 137.95 169.541 136.125 168.313L119.281 156.979C117.456 155.751 116.972 153.276 118.2 151.451L129.534 134.607Z" fill="url(#paint2_radial_1613_78)"></path><path d="M149.635 178.88C151.984 177.873 154.705 178.961 155.712 181.311L165.008 202.998C166.015 205.348 164.927 208.069 162.577 209.076L140.889 218.371C138.54 219.378 135.819 218.29 134.812 215.94L125.516 194.253C124.509 191.903 125.597 189.182 127.947 188.175L149.635 178.88Z" fill="url(#paint3_radial_1613_78)"></path><path d="M169.025 219.132C168.379 217.623 166.631 216.924 165.122 217.571L151.193 223.541C149.684 224.188 148.985 225.936 149.631 227.445L155.602 241.374C156.248 242.883 157.996 243.582 159.505 242.935L173.434 236.965C174.943 236.318 175.642 234.571 174.996 233.062L169.025 219.132Z" fill="url(#paint4_radial_1613_78)"></path><path d="M126.955 243.522C127.531 244.709 127.035 246.137 125.848 246.713L114.896 252.023C113.709 252.599 112.281 252.103 111.706 250.917L106.395 239.964C105.819 238.777 106.315 237.349 107.501 236.774L118.454 231.463C119.641 230.888 121.069 231.383 121.644 232.57L126.955 243.522Z" fill="url(#paint5_radial_1613_78)"></path><path d="M103.734 273.163C104.387 272.017 103.988 270.559 102.842 269.906L92.2677 263.878C91.122 263.224 89.6639 263.624 89.0108 264.769L82.9825 275.344C82.3294 276.49 82.7287 277.948 83.8744 278.601L94.4491 284.629C95.5947 285.282 97.0529 284.883 97.706 283.737L103.734 273.163Z" fill="url(#paint6_radial_1613_78)"></path><path d="M97.6963 247.774C98.2204 248.073 98.403 248.739 98.1043 249.263L95.3469 254.1C95.0482 254.624 94.3812 254.807 93.8572 254.508L89.0203 251.751C88.4962 251.452 88.3136 250.785 88.6123 250.261L91.3697 245.424C91.6684 244.9 92.3354 244.718 92.8594 245.016L97.6963 247.774Z" fill="url(#paint7_radial_1613_78)"></path><path d="M73.0682 284.704C73.6681 284.766 74.2053 284.331 74.2681 283.731L74.8478 278.194C74.9106 277.594 74.4751 277.057 73.8752 276.994L68.3378 276.414C67.7379 276.351 67.2007 276.787 67.1379 277.387L66.5583 282.924C66.4955 283.524 66.9309 284.061 67.5308 284.124L73.0682 284.704Z" fill="url(#paint8_radial_1613_78)"></path><path d="M61.7252 289.457C61.6902 289.791 61.3907 290.034 61.0563 289.999L57.9693 289.676C57.6349 289.641 57.3922 289.341 57.4272 289.007L57.7503 285.92C57.7853 285.586 58.0848 285.343 58.4192 285.378L61.5061 285.701C61.8406 285.736 62.0833 286.035 62.0483 286.37L61.7252 289.457Z" fill="url(#paint9_radial_1613_78)"></path><path d="M83.2632 289.045C83.4528 289.163 83.702 289.105 83.8198 288.915L84.9078 287.166C85.0257 286.976 84.9675 286.727 84.778 286.609L83.0284 285.521C82.8389 285.403 82.5897 285.461 82.4718 285.651L81.3839 287.401C81.266 287.59 81.3241 287.839 81.5137 287.957L83.2632 289.045Z" fill="url(#paint10_radial_1613_78)"></path><path d="M56.4795 260.629C56.8614 260.629 57.1833 260.501 57.4452 260.245C57.7071 259.983 57.838 259.658 57.838 259.271C57.838 258.884 57.7071 258.562 57.4452 258.305C57.1833 258.043 56.8614 257.912 56.4795 257.912C56.0976 257.912 55.7758 258.043 55.5139 258.305C55.252 258.562 55.1211 258.884 55.1211 259.271C55.1211 259.658 55.252 259.983 55.5139 260.245C55.7758 260.501 56.0976 260.629 56.4795 260.629Z" fill="url(#paint11_linear_1613_78)"></path><path d="M55.3175 270.081H57.6007V261.701H55.3175V270.081Z" fill="url(#paint12_linear_1613_78)"></path><path d="M59.3847 270.081H61.6433V258.346H59.3847V270.081Z" fill="url(#paint13_linear_1613_78)"></path><path d="M51.1193 261.448C51.9813 261.448 52.6387 261.748 53.0916 262.348C53.5444 262.948 53.7708 263.794 53.7708 264.885V270.081H51.4876V264.983C51.4876 264.503 51.3867 264.121 51.1848 263.837C50.983 263.554 50.6938 263.412 50.3174 263.412C49.8045 263.412 49.3844 263.644 49.0571 264.107C48.7352 264.566 48.5743 265.171 48.5743 265.924V270.081H46.2911V264.983C46.2911 264.476 46.1874 264.077 45.9801 263.788C45.7728 263.494 45.4755 263.346 45.0881 263.346C44.5753 263.346 44.1497 263.584 43.8115 264.058C43.4787 264.533 43.3123 265.166 43.3123 265.957V270.081H41.0455V261.701H43.3123V263.191C43.536 262.662 43.8824 262.239 44.3516 261.922C44.8208 261.606 45.3609 261.448 45.9719 261.448C46.5666 261.448 47.0822 261.609 47.5186 261.931C47.9605 262.247 48.266 262.673 48.4352 263.207C48.6643 262.662 49.0107 262.233 49.4745 261.922C49.9437 261.606 50.4919 261.448 51.1193 261.448Z" fill="url(#paint14_linear_1613_78)"></path><path fill-rule="evenodd" clip-rule="evenodd" d="M35.939 265.335H34.1632V258.346H31.168C30.0605 260.938 28.2329 263.262 25.6851 265.319V267.299H31.749V270.081H34.1632V267.299H35.939V265.335ZM31.749 261.317V265.335H28.5329C29.8368 264.151 30.9089 262.812 31.749 261.317Z" fill="url(#paint15_linear_1613_78)"></path><path d="M24.7276 262.356C24.7276 264.784 23.0445 266.699 19.6784 268.101H24.7112V270.081H15.9304V268.175C16.6887 267.825 17.3461 267.506 17.9026 267.217C18.4591 266.928 18.9828 266.631 19.4738 266.325C19.9703 266.02 20.3794 265.722 20.7013 265.433C21.0287 265.144 21.3124 264.841 21.5524 264.525C21.7925 264.203 21.9643 263.87 22.068 263.526C22.1771 263.183 22.2316 262.814 22.2316 262.422C22.2316 261.723 22.0625 261.17 21.7243 260.76C21.3915 260.351 20.9059 260.147 20.2676 260.147C19.6129 260.147 19.1137 260.354 18.77 260.769C18.4263 261.178 18.2545 261.723 18.2545 262.405C18.2545 263.18 18.4891 263.916 18.9582 264.615H16.4295C15.9822 263.911 15.7585 263.142 15.7585 262.307C15.7585 261.058 16.1649 260.046 16.9778 259.271C17.7907 258.491 18.8819 258.101 20.2512 258.101C21.6152 258.101 22.7008 258.494 23.5083 259.279C24.3212 260.065 24.7276 261.09 24.7276 262.356Z" fill="url(#paint16_linear_1613_78)"></path><path d="M10.9147 265.702C11.724 265.261 11.725 264.099 10.9164 263.656L2.26883 258.92C1.2725 258.374 0.163623 259.43 0.660255 260.452L1.98334 263.174C2.44307 264.12 2.44214 265.224 1.98083 266.169L0.653178 268.889C0.154833 269.91 1.26194 270.968 2.25919 270.424L10.9147 265.702Z" fill="url(#paint17_linear_1613_78)"></path><path d="M240.047 226.314H237.897C237.683 226.966 237.28 227.54 236.69 228.035C236.104 228.531 235.437 228.802 234.69 228.85V230.707C235.323 230.664 235.916 230.498 236.468 230.207C237.021 229.912 237.507 229.512 237.926 229.007V236.558H240.047V226.314Z" fill="url(#paint18_linear_1613_78)"></path><path d="M249.677 233.6C249.677 232.457 249.127 231.633 248.027 231.129C248.865 230.638 249.284 229.912 249.284 228.95C249.284 228.102 248.953 227.416 248.291 226.892C247.634 226.364 246.784 226.099 245.741 226.099C244.974 226.099 244.298 226.245 243.712 226.535C243.131 226.821 242.7 227.226 242.419 227.75C242.143 228.269 242.064 228.855 242.183 229.507H244.333C244.224 229.04 244.3 228.655 244.562 228.35C244.824 228.04 245.207 227.885 245.712 227.885C246.141 227.885 246.481 227.993 246.734 228.207C246.991 228.416 247.119 228.702 247.119 229.064C247.119 229.469 246.974 229.793 246.684 230.036C246.398 230.278 246.024 230.4 245.562 230.4H244.776V231.979H245.562C246.143 231.979 246.61 232.119 246.962 232.4C247.32 232.676 247.498 233.048 247.498 233.515C247.498 233.953 247.334 234.31 247.005 234.586C246.681 234.858 246.26 234.993 245.741 234.993C245.126 234.993 244.653 234.8 244.319 234.415C243.991 234.029 243.893 233.548 244.026 232.972H241.848C241.724 233.71 241.809 234.372 242.105 234.958C242.405 235.539 242.869 235.989 243.498 236.308C244.131 236.622 244.869 236.779 245.712 236.779C246.884 236.779 247.836 236.484 248.57 235.893C249.308 235.298 249.677 234.534 249.677 233.6Z" fill="url(#paint19_linear_1613_78)"></path><path fill-rule="evenodd" clip-rule="evenodd" d="M252.163 235.358C252.982 236.305 254.051 236.779 255.37 236.779C256.023 236.779 256.621 236.66 257.163 236.422C257.711 236.179 258.18 235.834 258.571 235.386C258.961 234.939 259.266 234.379 259.485 233.707C259.704 233.031 259.814 232.279 259.814 231.45C259.814 229.783 259.404 228.476 258.585 227.528C257.771 226.576 256.699 226.099 255.37 226.099C254.723 226.099 254.127 226.221 253.584 226.464C253.042 226.702 252.572 227.045 252.177 227.492C251.787 227.94 251.482 228.502 251.263 229.178C251.044 229.855 250.934 230.612 250.934 231.45C250.934 233.107 251.344 234.41 252.163 235.358ZM255.37 234.993C254.67 234.993 254.118 234.679 253.713 234.05C253.313 233.417 253.113 232.55 253.113 231.45C253.113 230.336 253.313 229.464 253.713 228.835C254.118 228.202 254.67 227.885 255.37 227.885C256.07 227.885 256.623 228.202 257.028 228.835C257.432 229.464 257.635 230.336 257.635 231.45C257.635 232.55 257.432 233.417 257.028 234.05C256.623 234.679 256.07 234.993 255.37 234.993Z" fill="url(#paint20_linear_1613_78)"></path><path d="M275.122 229.807C274.727 229.283 274.153 229.021 273.401 229.021C272.853 229.021 272.375 229.159 271.965 229.436C271.56 229.707 271.258 230.081 271.058 230.557C270.91 230.09 270.643 229.719 270.258 229.443C269.877 229.162 269.427 229.021 268.908 229.021C268.374 229.021 267.903 229.159 267.493 229.436C267.084 229.712 266.781 230.081 266.586 230.543V229.243H264.607V236.558H266.586V232.957C266.586 232.267 266.731 231.714 267.022 231.3C267.317 230.886 267.688 230.679 268.136 230.679C268.474 230.679 268.734 230.807 268.915 231.064C269.096 231.317 269.186 231.664 269.186 232.107V236.558H271.179V232.929C271.179 232.272 271.32 231.743 271.601 231.343C271.886 230.938 272.253 230.736 272.701 230.736C273.029 230.736 273.282 230.86 273.458 231.107C273.634 231.355 273.722 231.688 273.722 232.107V236.558H275.715V232.022C275.715 231.069 275.518 230.331 275.122 229.807Z" fill="url(#paint21_linear_1613_78)"></path><path d="M278.08 228.307C278.413 228.307 278.694 228.195 278.923 227.971C279.151 227.743 279.266 227.459 279.266 227.121C279.266 226.783 279.151 226.502 278.923 226.278C278.694 226.049 278.413 225.935 278.08 225.935C277.747 225.935 277.466 226.049 277.237 226.278C277.008 226.502 276.894 226.783 276.894 227.121C276.894 227.459 277.008 227.743 277.237 227.971C277.466 228.195 277.747 228.307 278.08 228.307Z" fill="url(#paint22_linear_1613_78)"></path><path d="M277.066 236.558H279.059V229.243H277.066V236.558Z" fill="url(#paint23_linear_1613_78)"></path><path d="M280.616 236.558H282.588V226.314H280.616V236.558Z" fill="url(#paint24_linear_1613_78)"></path><path d="M230.995 232.73C231.701 232.345 231.702 231.331 230.997 230.944L223.448 226.81C222.578 226.333 221.61 227.255 222.044 228.147L223.199 230.523C223.6 231.349 223.599 232.313 223.196 233.138L222.037 235.512C221.602 236.403 222.569 237.327 223.439 236.852L230.995 232.73Z" fill="url(#paint25_linear_1613_78)"></path><path d="M42.5605 206.072C43.4546 205.584 43.4557 204.3 42.5623 203.811L33.0078 198.578C31.907 197.975 30.6819 199.142 31.2306 200.271L32.6924 203.278C33.2004 204.323 33.1993 205.544 32.6896 206.588L31.2228 209.593C30.6722 210.721 31.8954 211.89 32.9972 211.289L42.5605 206.072Z" fill="url(#paint26_linear_1613_78)"></path><path d="M99.9646 201.476C99.6753 201.759 99.3197 201.901 98.8977 201.901C98.4758 201.901 98.1201 201.759 97.8308 201.476C97.5415 201.187 97.3968 200.828 97.3968 200.4C97.3968 199.972 97.5415 199.616 97.8308 199.333C98.1201 199.044 98.4758 198.899 98.8977 198.899C99.3197 198.899 99.6753 199.044 99.9646 199.333C100.254 199.616 100.399 199.972 100.399 200.4C100.399 200.828 100.254 201.187 99.9646 201.476Z" fill="url(#paint27_linear_1613_78)"></path><path d="M100.136 212.344H97.6138V203.085H100.136V212.344Z" fill="url(#paint28_linear_1613_78)"></path><path d="M104.603 212.344H102.108V199.378H104.603V212.344Z" fill="url(#paint29_linear_1613_78)"></path><path d="M95.1544 203.8C94.6541 203.137 93.9278 202.805 92.9754 202.805C92.2822 202.805 91.6764 202.98 91.158 203.33C90.6456 203.673 90.2629 204.146 90.0097 204.749C89.8229 204.158 89.4853 203.688 88.997 203.339C88.5148 202.983 87.9452 202.805 87.2882 202.805C86.613 202.805 86.0163 202.98 85.4979 203.33C84.9795 203.679 84.5967 204.146 84.3496 204.731V203.085H81.8451V212.344H84.3496V207.787C84.3496 206.913 84.5335 206.214 84.9012 205.689C85.2749 205.165 85.745 204.903 86.3117 204.903C86.7396 204.903 87.0681 205.066 87.2972 205.391C87.5263 205.71 87.6408 206.151 87.6408 206.711V212.344H90.1634V207.751C90.1634 206.919 90.3412 206.25 90.6969 205.744C91.0586 205.231 91.5227 204.975 92.0893 204.975C92.5052 204.975 92.8247 205.132 93.0477 205.445C93.2708 205.759 93.3823 206.181 93.3823 206.711V212.344H95.9049V206.603C95.9049 205.397 95.6548 204.463 95.1544 203.8Z" fill="url(#paint30_linear_1613_78)"></path><path d="M66.3928 201.566V199.378H76.1126V201.367C73.5146 204.508 72.083 208.167 71.8178 212.344H69.0058C69.253 208.287 70.6092 204.695 73.0746 201.566H66.3928Z" fill="url(#paint31_linear_1613_78)"></path><path d="M64.6116 199.378H61.89C61.6188 200.204 61.1094 200.93 60.362 201.557C59.6206 202.184 58.7767 202.528 57.8303 202.588V204.939C58.632 204.885 59.3825 204.674 60.0817 204.306C60.7809 203.932 61.3957 203.426 61.9262 202.787V212.344H64.6116V199.378Z" fill="url(#paint32_linear_1613_78)"></path><path d="M54.8014 205.472C56.1938 206.111 56.89 207.154 56.89 208.601C56.89 209.782 56.4228 210.75 55.4885 211.503C54.5603 212.251 53.3547 212.624 51.8719 212.624C50.8049 212.624 49.8706 212.425 49.0689 212.028C48.2733 211.624 47.6855 211.054 47.3058 210.319C46.9321 209.577 46.8236 208.739 46.9803 207.805H49.738C49.5692 208.535 49.6928 209.143 50.1087 209.632C50.5307 210.12 51.1304 210.364 51.908 210.364C52.5651 210.364 53.0985 210.192 53.5084 209.849C53.9243 209.499 54.1323 209.047 54.1323 208.492C54.1323 207.902 53.9062 207.431 53.4542 207.082C53.0081 206.726 52.4174 206.548 51.682 206.548H50.6874V204.55H51.682C52.2667 204.55 52.7399 204.396 53.1015 204.089C53.4692 203.782 53.6531 203.372 53.6531 202.859C53.6531 202.401 53.4903 202.04 53.1648 201.774C52.8453 201.503 52.4144 201.367 51.8719 201.367C51.2329 201.367 50.7477 201.563 50.4161 201.955C50.0846 202.341 49.9882 202.829 50.1268 203.42H47.4053C47.2546 202.594 47.354 201.853 47.7036 201.196C48.0593 200.533 48.6048 200.02 49.3402 199.659C50.0816 199.291 50.9375 199.107 51.908 199.107C53.2281 199.107 54.3041 199.442 55.1359 200.111C55.9738 200.774 56.3927 201.642 56.3927 202.715C56.3927 203.932 55.8623 204.852 54.8014 205.472Z" fill="url(#paint33_linear_1613_78)"></path><path d="M48.1099 134.154C47.3091 133.33 46.2413 132.918 44.9066 132.918C44.0419 132.918 43.3166 133.113 42.7304 133.501C42.8871 132.764 43.0003 131.975 43.0699 131.134H48.7019V129.027H40.7197C40.7197 129.996 40.6355 131.015 40.4672 132.083C40.2989 133.145 40.0668 134.099 39.7708 134.946L42.3039 135.843C42.507 135.576 42.7798 135.367 43.1222 135.216C43.4703 135.06 43.862 134.981 44.2973 134.981C45.0343 134.981 45.6146 135.199 46.0382 135.634C46.4618 136.069 46.6737 136.632 46.6737 137.323C46.6737 138.002 46.4735 138.553 46.073 138.977C45.6784 139.395 45.1358 139.603 44.4453 139.603C43.7373 139.603 43.2005 139.389 42.8349 138.959C42.4693 138.524 42.3619 137.961 42.5128 137.271H39.8579C39.6316 138.553 39.9594 139.627 40.8415 140.491C41.7236 141.35 42.9132 141.78 44.4104 141.78C45.8728 141.78 47.0538 141.362 47.9532 140.526C48.8585 139.685 49.3112 138.6 49.3112 137.271C49.3112 136.011 48.9108 134.973 48.1099 134.154Z" fill="url(#paint34_linear_1613_78)"></path><path fill-rule="evenodd" clip-rule="evenodd" d="M52.1663 140.047C53.1645 141.202 54.4673 141.78 56.0747 141.78C56.8697 141.78 57.598 141.635 58.2596 141.344C58.927 141.048 59.4986 140.628 59.9744 140.082C60.4503 139.537 60.8217 138.855 61.0886 138.037C61.3556 137.213 61.489 136.296 61.489 135.286C61.489 133.255 60.99 131.662 59.9918 130.507C58.9995 129.346 57.6938 128.766 56.0747 128.766C55.2855 128.766 54.5601 128.914 53.8985 129.21C53.237 129.5 52.6654 129.918 52.1837 130.464C51.7079 131.009 51.3365 131.694 51.0695 132.518C50.8026 133.342 50.6691 134.265 50.6691 135.286C50.6691 137.305 51.1682 138.893 52.1663 140.047ZM56.0747 139.603C55.2217 139.603 54.5485 139.22 54.0552 138.454C53.5678 137.683 53.324 136.626 53.324 135.286C53.324 133.928 53.5678 132.866 54.0552 132.1C54.5485 131.328 55.2217 130.942 56.0747 130.942C56.9278 130.942 57.6009 131.328 58.0942 132.1C58.5875 132.866 58.8341 133.928 58.8341 135.286C58.8341 136.626 58.5875 137.683 58.0942 138.454C57.6009 139.22 56.9278 139.603 56.0747 139.603Z" fill="url(#paint35_linear_1613_78)"></path><path fill-rule="evenodd" clip-rule="evenodd" d="M64.527 140.047C65.5251 141.202 66.8279 141.78 68.4354 141.78C69.2304 141.78 69.9587 141.635 70.6203 141.344C71.2876 141.048 71.8592 140.628 72.3351 140.082C72.8109 139.537 73.1823 138.855 73.4493 138.037C73.7162 137.213 73.8497 136.296 73.8497 135.286C73.8497 133.255 73.3506 131.662 72.3525 130.507C71.3601 129.346 70.0544 128.766 68.4354 128.766C67.6461 128.766 66.9208 128.914 66.2592 129.21C65.5976 129.5 65.026 129.918 64.5444 130.464C64.0685 131.009 63.6971 131.694 63.4302 132.518C63.1632 133.342 63.0298 134.265 63.0298 135.286C63.0298 137.305 63.5288 138.893 64.527 140.047ZM68.4354 139.603C67.5823 139.603 66.9091 139.22 66.4159 138.454C65.9284 137.683 65.6847 136.626 65.6847 135.286C65.6847 133.928 65.9284 132.866 66.4159 132.1C66.9091 131.328 67.5823 130.942 68.4354 130.942C69.2884 130.942 69.9616 131.328 70.4549 132.1C70.9481 132.866 71.1948 133.928 71.1948 135.286C71.1948 136.626 70.9481 137.683 70.4549 138.454C69.9616 139.22 69.2884 139.603 68.4354 139.603Z" fill="url(#paint36_linear_1613_78)"></path><path d="M92.5038 133.284C92.0222 132.646 91.3229 132.326 90.406 132.326C89.7386 132.326 89.1554 132.495 88.6564 132.831C88.1631 133.162 87.7946 133.618 87.5509 134.198C87.371 133.629 87.046 133.176 86.5759 132.84C86.1117 132.498 85.5633 132.326 84.9307 132.326C84.2808 132.326 83.7063 132.495 83.2072 132.831C82.7082 133.168 82.3397 133.618 82.1017 134.18V132.596H79.6905V141.51H82.1017V137.123C82.1017 136.281 82.2787 135.608 82.6327 135.103C82.9925 134.598 83.4451 134.346 83.9906 134.346C84.4027 134.346 84.7189 134.503 84.9395 134.816C85.16 135.123 85.2702 135.547 85.2702 136.087V141.51H87.6988V137.088C87.6988 136.287 87.87 135.643 88.2124 135.155C88.5606 134.662 89.0074 134.415 89.5529 134.415C89.9534 134.415 90.2609 134.566 90.4756 134.868C90.6903 135.17 90.7977 135.576 90.7977 136.087V141.51H93.2263V135.982C93.2263 134.822 92.9855 133.922 92.5038 133.284Z" fill="url(#paint37_linear_1613_78)"></path><path d="M96.1076 131.456C96.5138 131.456 96.8562 131.319 97.1347 131.047C97.4133 130.768 97.5525 130.423 97.5525 130.011C97.5525 129.599 97.4133 129.256 97.1347 128.984C96.8562 128.705 96.5138 128.566 96.1076 128.566C95.7013 128.566 95.359 128.705 95.0804 128.984C94.8019 129.256 94.6626 129.599 94.6626 130.011C94.6626 130.423 94.8019 130.768 95.0804 131.047C95.359 131.319 95.7013 131.456 96.1076 131.456Z" fill="url(#paint38_linear_1613_78)"></path><path d="M94.8715 141.51H97.3001V132.596H94.8715V141.51Z" fill="url(#paint39_linear_1613_78)"></path><path d="M99.1977 141.51H101.6V129.027H99.1977V141.51Z" fill="url(#paint40_linear_1613_78)"></path><path d="M32.7324 136.214C33.5932 135.744 33.5942 134.509 32.7342 134.038L23.5358 129C22.4761 128.419 21.2966 129.543 21.8248 130.63L23.2322 133.525C23.7212 134.531 23.7202 135.706 23.2295 136.711L21.8173 139.604C21.2872 140.69 22.4648 141.815 23.5256 141.236L32.7324 136.214Z" fill="url(#paint41_linear_1613_78)"></path><path d="M146.798 9.95833C147.957 9.32614 147.958 7.66257 146.8 7.02844L134.417 0.246139C132.99 -0.535279 131.402 0.977279 132.114 2.4403L134.008 6.33796C134.667 7.69227 134.665 9.27414 134.005 10.6273L132.103 14.5218C131.39 15.9836 132.975 17.4989 134.403 16.7198L146.798 9.95833Z" fill="url(#paint42_linear_1613_78)"></path><path d="M162.975 0.80728H159.447C159.096 1.87759 158.436 2.819 157.467 3.6315C156.506 4.444 155.412 4.88931 154.186 4.96744V8.01431C155.225 7.944 156.197 7.67056 157.104 7.194C158.01 6.70962 158.807 6.05337 159.494 5.22525V17.612H162.975V0.80728Z" fill="url(#paint43_linear_1613_78)"></path><path d="M188.873 6.53775C188.225 5.67837 187.283 5.24869 186.049 5.24869C185.151 5.24869 184.365 5.47525 183.694 5.92837C183.029 6.37369 182.533 6.98697 182.205 7.76822C181.963 7.00259 181.526 6.39322 180.893 5.94009C180.268 5.47916 179.529 5.24869 178.678 5.24869C177.803 5.24869 177.029 5.47525 176.358 5.92837C175.686 6.3815 175.19 6.98697 174.869 7.74478V5.61197H171.623V17.612H174.869V11.7057C174.869 10.5729 175.108 9.66665 175.584 8.98697C176.069 8.30728 176.678 7.96744 177.412 7.96744C177.967 7.96744 178.393 8.17837 178.69 8.60025C178.986 9.01431 179.135 9.58462 179.135 10.3112V17.612H182.404V11.6588C182.404 10.5807 182.635 9.71353 183.096 9.05728C183.565 8.39322 184.166 8.06119 184.901 8.06119C185.44 8.06119 185.854 8.26431 186.143 8.67056C186.432 9.07681 186.576 9.62369 186.576 10.3112V17.612H189.846V10.1706C189.846 8.60806 189.522 7.39712 188.873 6.53775Z" fill="url(#paint44_linear_1613_78)"></path><path d="M193.725 4.07681C194.272 4.07681 194.733 3.89322 195.108 3.52603C195.483 3.15103 195.67 2.68619 195.67 2.1315C195.67 1.57681 195.483 1.11587 195.108 0.748686C194.733 0.373686 194.272 0.186186 193.725 0.186186C193.178 0.186186 192.717 0.373686 192.342 0.748686C191.967 1.11587 191.779 1.57681 191.779 2.1315C191.779 2.68619 191.967 3.15103 192.342 3.52603C192.717 3.89322 193.178 4.07681 193.725 4.07681Z" fill="url(#paint45_linear_1613_78)"></path><path d="M192.061 17.612H195.33V5.61197H192.061V17.612Z" fill="url(#paint46_linear_1613_78)"></path><defs><radialGradient id="paint0_radial_1613_78" cx="0" cy="0" r="1" gradientUnits="userSpaceOnUse" gradientTransform="translate(204.166 17.7439) rotate(93.3178) scale(142.773 916.675)"><stop stop-color="#EDEDF1"></stop><stop offset="0.445" stop-color="#FFC700"></stop><stop offset="1" stop-color="#F7450D"></stop></radialGradient><radialGradient id="paint1_radial_1613_78" cx="0" cy="0" r="1" gradientUnits="userSpaceOnUse" gradientTransform="translate(204.166 17.7439) rotate(93.3178) scale(142.773 916.675)"><stop stop-color="#EDEDF1"></stop><stop offset="0.445" stop-color="#FFC700"></stop><stop offset="1" stop-color="#F7450D"></stop></radialGradient><radialGradient id="paint2_radial_1613_78" cx="0" cy="0" r="1" gradientUnits="userSpaceOnUse" gradientTransform="translate(204.166 17.7439) rotate(93.3178) scale(142.773 916.675)"><stop stop-color="#EDEDF1"></stop><stop offset="0.445" stop-color="#FFC700"></stop><stop offset="1" stop-color="#F7450D"></stop></radialGradient><radialGradient id="paint3_radial_1613_78" cx="0" cy="0" r="1" gradientUnits="userSpaceOnUse" gradientTransform="translate(204.166 17.7439) rotate(93.3178) scale(142.773 916.675)"><stop stop-color="#EDEDF1"></stop><stop offset="0.445" stop-color="#FFC700"></stop><stop offset="1" stop-color="#F7450D"></stop></radialGradient><radialGradient id="paint4_radial_1613_78" cx="0" cy="0" r="1" gradientUnits="userSpaceOnUse" gradientTransform="translate(204.166 17.7439) rotate(93.3178) scale(142.773 916.675)"><stop stop-color="#EDEDF1"></stop><stop offset="0.445" stop-color="#FFC700"></stop><stop offset="1" stop-color="#F7450D"></stop></radialGradient><radialGradient id="paint5_radial_1613_78" cx="0" cy="0" r="1" gradientUnits="userSpaceOnUse" gradientTransform="translate(204.166 17.7439) rotate(93.3178) scale(142.773 916.675)"><stop stop-color="#EDEDF1"></stop><stop offset="0.445" stop-color="#FFC700"></stop><stop offset="1" stop-color="#F7450D"></stop></radialGradient><radialGradient id="paint6_radial_1613_78" cx="0" cy="0" r="1" gradientUnits="userSpaceOnUse" gradientTransform="translate(204.166 17.7439) rotate(93.3178) scale(142.773 916.675)"><stop stop-color="#EDEDF1"></stop><stop offset="0.445" stop-color="#FFC700"></stop><stop offset="1" stop-color="#F7450D"></stop></radialGradient><radialGradient id="paint7_radial_1613_78" cx="0" cy="0" r="1" gradientUnits="userSpaceOnUse" gradientTransform="translate(204.166 17.7439) rotate(93.3178) scale(142.773 916.675)"><stop stop-color="#EDEDF1"></stop><stop offset="0.445" stop-color="#FFC700"></stop><stop offset="1" stop-color="#F7450D"></stop></radialGradient><radialGradient id="paint8_radial_1613_78" cx="0" cy="0" r="1" gradientUnits="userSpaceOnUse" gradientTransform="translate(204.166 17.7439) rotate(93.3178) scale(142.773 916.675)"><stop stop-color="#EDEDF1"></stop><stop offset="0.445" stop-color="#FFC700"></stop><stop offset="1" stop-color="#F7450D"></stop></radialGradient><radialGradient id="paint9_radial_1613_78" cx="0" cy="0" r="1" gradientUnits="userSpaceOnUse" gradientTransform="translate(204.166 17.7439) rotate(93.3178) scale(142.773 916.675)"><stop stop-color="#EDEDF1"></stop><stop offset="0.445" stop-color="#FFC700"></stop><stop offset="1" stop-color="#F7450D"></stop></radialGradient><radialGradient id="paint10_radial_1613_78" cx="0" cy="0" r="1" gradientUnits="userSpaceOnUse" gradientTransform="translate(204.166 17.7439) rotate(93.3178) scale(142.773 916.675)"><stop stop-color="#EDEDF1"></stop><stop offset="0.445" stop-color="#FFC700"></stop><stop offset="1" stop-color="#F7450D"></stop></radialGradient><linearGradient id="paint11_linear_1613_78" x1="0.529785" y1="264.242" x2="61.6433" y2="264.242" gradientUnits="userSpaceOnUse"><stop stop-color="#F0F3FF"></stop><stop offset="1" stop-color="#545475"></stop></linearGradient><linearGradient id="paint12_linear_1613_78" x1="0.529785" y1="264.242" x2="61.6433" y2="264.242" gradientUnits="userSpaceOnUse"><stop stop-color="#F0F3FF"></stop><stop offset="1" stop-color="#545475"></stop></linearGradient><linearGradient id="paint13_linear_1613_78" x1="0.529785" y1="264.242" x2="61.6433" y2="264.242" gradientUnits="userSpaceOnUse"><stop stop-color="#F0F3FF"></stop><stop offset="1" stop-color="#545475"></stop></linearGradient><linearGradient id="paint14_linear_1613_78" x1="0.529785" y1="264.242" x2="61.6433" y2="264.242" gradientUnits="userSpaceOnUse"><stop stop-color="#F0F3FF"></stop><stop offset="1" stop-color="#545475"></stop></linearGradient><linearGradient id="paint15_linear_1613_78" x1="0.529785" y1="264.242" x2="61.6433" y2="264.242" gradientUnits="userSpaceOnUse"><stop stop-color="#F0F3FF"></stop><stop offset="1" stop-color="#545475"></stop></linearGradient><linearGradient id="paint16_linear_1613_78" x1="0.529785" y1="264.242" x2="61.6433" y2="264.242" gradientUnits="userSpaceOnUse"><stop stop-color="#F0F3FF"></stop><stop offset="1" stop-color="#545475"></stop></linearGradient><linearGradient id="paint17_linear_1613_78" x1="0.529785" y1="264.242" x2="61.6433" y2="264.242" gradientUnits="userSpaceOnUse"><stop stop-color="#F0F3FF"></stop><stop offset="1" stop-color="#545475"></stop></linearGradient><linearGradient id="paint18_linear_1613_78" x1="221.93" y1="231.458" x2="282.588" y2="231.458" gradientUnits="userSpaceOnUse"><stop stop-color="#F0F3FF"></stop><stop offset="1" stop-color="#545475"></stop></linearGradient><linearGradient id="paint19_linear_1613_78" x1="221.93" y1="231.458" x2="282.588" y2="231.458" gradientUnits="userSpaceOnUse"><stop stop-color="#F0F3FF"></stop><stop offset="1" stop-color="#545475"></stop></linearGradient><linearGradient id="paint20_linear_1613_78" x1="221.93" y1="231.458" x2="282.588" y2="231.458" gradientUnits="userSpaceOnUse"><stop stop-color="#F0F3FF"></stop><stop offset="1" stop-color="#545475"></stop></linearGradient><linearGradient id="paint21_linear_1613_78" x1="221.93" y1="231.458" x2="282.588" y2="231.458" gradientUnits="userSpaceOnUse"><stop stop-color="#F0F3FF"></stop><stop offset="1" stop-color="#545475"></stop></linearGradient><linearGradient id="paint22_linear_1613_78" x1="221.93" y1="231.458" x2="282.588" y2="231.458" gradientUnits="userSpaceOnUse"><stop stop-color="#F0F3FF"></stop><stop offset="1" stop-color="#545475"></stop></linearGradient><linearGradient id="paint23_linear_1613_78" x1="221.93" y1="231.458" x2="282.588" y2="231.458" gradientUnits="userSpaceOnUse"><stop stop-color="#F0F3FF"></stop><stop offset="1" stop-color="#545475"></stop></linearGradient><linearGradient id="paint24_linear_1613_78" x1="221.93" y1="231.458" x2="282.588" y2="231.458" gradientUnits="userSpaceOnUse"><stop stop-color="#F0F3FF"></stop><stop offset="1" stop-color="#545475"></stop></linearGradient><linearGradient id="paint25_linear_1613_78" x1="221.93" y1="231.458" x2="282.588" y2="231.458" gradientUnits="userSpaceOnUse"><stop stop-color="#F0F3FF"></stop><stop offset="1" stop-color="#545475"></stop></linearGradient><linearGradient id="paint26_linear_1613_78" x1="31.0864" y1="205.519" x2="104.603" y2="205.519" gradientUnits="userSpaceOnUse"><stop stop-color="#F0F3FF"></stop><stop offset="1" stop-color="#545475"></stop></linearGradient><linearGradient id="paint27_linear_1613_78" x1="31.0864" y1="205.519" x2="104.603" y2="205.519" gradientUnits="userSpaceOnUse"><stop stop-color="#F0F3FF"></stop><stop offset="1" stop-color="#545475"></stop></linearGradient><linearGradient id="paint28_linear_1613_78" x1="31.0864" y1="205.519" x2="104.603" y2="205.519" gradientUnits="userSpaceOnUse"><stop stop-color="#F0F3FF"></stop><stop offset="1" stop-color="#545475"></stop></linearGradient><linearGradient id="paint29_linear_1613_78" x1="31.0864" y1="205.519" x2="104.603" y2="205.519" gradientUnits="userSpaceOnUse"><stop stop-color="#F0F3FF"></stop><stop offset="1" stop-color="#545475"></stop></linearGradient><linearGradient id="paint30_linear_1613_78" x1="31.0864" y1="205.519" x2="104.603" y2="205.519" gradientUnits="userSpaceOnUse"><stop stop-color="#F0F3FF"></stop><stop offset="1" stop-color="#545475"></stop></linearGradient><linearGradient id="paint31_linear_1613_78" x1="31.0864" y1="205.519" x2="104.603" y2="205.519" gradientUnits="userSpaceOnUse"><stop stop-color="#F0F3FF"></stop><stop offset="1" stop-color="#545475"></stop></linearGradient><linearGradient id="paint32_linear_1613_78" x1="31.0864" y1="205.519" x2="104.603" y2="205.519" gradientUnits="userSpaceOnUse"><stop stop-color="#F0F3FF"></stop><stop offset="1" stop-color="#545475"></stop></linearGradient><linearGradient id="paint33_linear_1613_78" x1="31.0864" y1="205.519" x2="104.603" y2="205.519" gradientUnits="userSpaceOnUse"><stop stop-color="#F0F3FF"></stop><stop offset="1" stop-color="#545475"></stop></linearGradient><linearGradient id="paint34_linear_1613_78" x1="21.686" y1="135.173" x2="101.6" y2="135.173" gradientUnits="userSpaceOnUse"><stop stop-color="#F0F3FF"></stop><stop offset="1" stop-color="#545475"></stop></linearGradient><linearGradient id="paint35_linear_1613_78" x1="21.686" y1="135.173" x2="101.6" y2="135.173" gradientUnits="userSpaceOnUse"><stop stop-color="#F0F3FF"></stop><stop offset="1" stop-color="#545475"></stop></linearGradient><linearGradient id="paint36_linear_1613_78" x1="21.686" y1="135.173" x2="101.6" y2="135.173" gradientUnits="userSpaceOnUse"><stop stop-color="#F0F3FF"></stop><stop offset="1" stop-color="#545475"></stop></linearGradient><linearGradient id="paint37_linear_1613_78" x1="21.686" y1="135.173" x2="101.6" y2="135.173" gradientUnits="userSpaceOnUse"><stop stop-color="#F0F3FF"></stop><stop offset="1" stop-color="#545475"></stop></linearGradient><linearGradient id="paint38_linear_1613_78" x1="21.686" y1="135.173" x2="101.6" y2="135.173" gradientUnits="userSpaceOnUse"><stop stop-color="#F0F3FF"></stop><stop offset="1" stop-color="#545475"></stop></linearGradient><linearGradient id="paint39_linear_1613_78" x1="21.686" y1="135.173" x2="101.6" y2="135.173" gradientUnits="userSpaceOnUse"><stop stop-color="#F0F3FF"></stop><stop offset="1" stop-color="#545475"></stop></linearGradient><linearGradient id="paint40_linear_1613_78" x1="21.686" y1="135.173" x2="101.6" y2="135.173" gradientUnits="userSpaceOnUse"><stop stop-color="#F0F3FF"></stop><stop offset="1" stop-color="#545475"></stop></linearGradient><linearGradient id="paint41_linear_1613_78" x1="21.686" y1="135.173" x2="101.6" y2="135.173" gradientUnits="userSpaceOnUse"><stop stop-color="#F0F3FF"></stop><stop offset="1" stop-color="#545475"></stop></linearGradient><linearGradient id="paint42_linear_1613_78" x1="131.927" y1="8.82252" x2="195.67" y2="8.82252" gradientUnits="userSpaceOnUse"><stop stop-color="#F0F3FF"></stop><stop offset="1" stop-color="#545475"></stop></linearGradient><linearGradient id="paint43_linear_1613_78" x1="131.927" y1="8.82252" x2="195.67" y2="8.82252" gradientUnits="userSpaceOnUse"><stop stop-color="#F0F3FF"></stop><stop offset="1" stop-color="#545475"></stop></linearGradient><linearGradient id="paint44_linear_1613_78" x1="131.927" y1="8.82252" x2="195.67" y2="8.82252" gradientUnits="userSpaceOnUse"><stop stop-color="#F0F3FF"></stop><stop offset="1" stop-color="#545475"></stop></linearGradient><linearGradient id="paint45_linear_1613_78" x1="131.927" y1="8.82252" x2="195.67" y2="8.82252" gradientUnits="userSpaceOnUse"><stop stop-color="#F0F3FF"></stop><stop offset="1" stop-color="#545475"></stop></linearGradient><linearGradient id="paint46_linear_1613_78" x1="131.927" y1="8.82252" x2="195.67" y2="8.82252" gradientUnits="userSpaceOnUse"><stop stop-color="#F0F3FF"></stop><stop offset="1" stop-color="#545475"></stop></linearGradient></defs></svg>