<svg xmlns="http://www.w3.org/2000/svg" width="1920" height="354" viewBox="0 0 1920 354" fill="none"><g filter="url(#filter0_d_2973_168)"><path d="M-103.474 8.77734C-103.474 8.77734 295.203 238.455 950.593 211.349C1605.98 184.242 2014.39 344.772 2014.39 344.772" stroke="#8E9AFF" stroke-width="0.743377"></path></g><g filter="url(#filter1_d_2973_168)"><path d="M-108.177 36.458C-108.177 36.458 296.375 255.621 950.83 211.368C1605.29 167.115 2017.75 316.898 2017.75 316.898" stroke="#4253E7" stroke-width="0.743377"></path></g><path d="M424.961 168.335C336.78 155.225 258.402 138.332 190.75 120.544" stroke="url(#paint0_linear_2973_168)" stroke-width="0.743377"></path><path d="M1623.88 209.324C1543.17 198.582 1451.38 189.736 1349.62 185.099" stroke="url(#paint1_linear_2973_168)" stroke-width="0.743377"></path><g filter="url(#filter2_d_2973_168)"><path d="M-108.874 29.438C-108.874 29.438 295.68 248.601 950.135 204.348C1604.59 160.095 2017.07 309.878 2017.07 309.878" stroke="#4253E7" stroke-width="0.743377"></path></g><g filter="url(#filter3_d_2973_168)"><path d="M-114.735 58.2251C-114.735 58.2251 293.582 270.295 947.164 214.626C1600.75 158.959 2015.77 301.52 2015.77 301.52" stroke="#537FFF" stroke-width="0.743377"></path></g><path d="M1192.66 225.163C1133.23 226.053 1071.1 228.512 1006.46 232.891" stroke="url(#paint2_linear_2973_168)" stroke-width="0.743377"></path><g filter="url(#filter4_d_2973_168)"><path d="M-117.086 59.4043C-117.086 59.4043 294.869 264.315 947.381 197.248C1599.89 130.182 2017.34 265.479 2017.34 265.479" stroke="#4253E7" stroke-width="0.743377"></path></g><path d="M727.957 186.666C600.399 184.033 485.306 171.869 384.231 155.002" stroke="url(#paint3_linear_2973_168)" stroke-opacity="0.4" stroke-width="0.743377" stroke-linecap="round"></path><path d="M-103.474 8.77734C-103.474 8.77734 295.203 238.455 950.593 211.349C1605.98 184.242 2014.39 344.772 2014.39 344.772" stroke="#8E9AFF" stroke-width="0.743377"></path><path d="M-108.177 36.458C-108.177 36.458 296.375 255.621 950.83 211.368C1605.29 167.115 2017.75 316.898 2017.75 316.898" stroke="#4253E7" stroke-width="0.743377"></path><path d="M424.961 168.335C336.78 155.225 258.402 138.332 190.75 120.544" stroke="url(#paint4_linear_2973_168)" stroke-width="0.743377"></path><path d="M1623.88 209.324C1543.17 198.582 1451.38 189.736 1349.62 185.099" stroke="url(#paint5_linear_2973_168)" stroke-width="0.743377"></path><path d="M-108.874 29.438C-108.874 29.438 295.68 248.601 950.135 204.348C1604.59 160.095 2017.07 309.878 2017.07 309.878" stroke="#4253E7" stroke-width="0.743377"></path><path d="M-114.738 58.2236C-114.738 58.2236 293.579 270.293 947.161 214.625C1600.74 158.957 2015.77 301.519 2015.77 301.519" stroke="#537FFF" stroke-width="0.743377"></path><path d="M1192.66 225.165C1133.22 226.055 1071.1 228.513 1006.46 232.892" stroke="url(#paint6_linear_2973_168)" stroke-width="0.743377"></path><path d="M-117.086 59.4043C-117.086 59.4043 294.869 264.315 947.381 197.248C1599.89 130.182 2017.34 265.479 2017.34 265.479" stroke="#4253E7" stroke-width="0.743377"></path><path d="M727.957 186.666C600.399 184.033 485.306 171.869 384.231 155.002" stroke="url(#paint7_linear_2973_168)" stroke-opacity="0.4" stroke-width="0.743377" stroke-linecap="round"></path><path d="M303.546 139.763C304.347 139.819 305.042 139.214 305.097 138.413C305.153 137.611 304.548 136.916 303.747 136.861C302.945 136.805 302.25 137.41 302.195 138.212C302.139 139.013 302.744 139.708 303.546 139.763Z" fill="#8793FF" fill-opacity="0.466667"></path><path d="M126.977 162.522C127.778 162.578 128.473 161.973 128.529 161.172C128.584 160.37 127.98 159.675 127.178 159.62C126.377 159.564 125.682 160.169 125.626 160.97C125.571 161.772 126.175 162.467 126.977 162.522Z" fill="#4253E7"></path><path d="M126.977 162.522C127.778 162.578 128.473 161.973 128.529 161.172C128.584 160.37 127.98 159.675 127.178 159.62C126.377 159.564 125.682 160.169 125.626 160.97C125.571 161.772 126.175 162.467 126.977 162.522Z" fill="#4253E7"></path><path d="M594.701 241.609C595.102 241.636 595.449 241.334 595.477 240.933C595.505 240.532 595.202 240.185 594.802 240.157C594.401 240.129 594.054 240.432 594.026 240.833C593.998 241.233 594.3 241.581 594.701 241.609Z" fill="white" fill-opacity="0.6"></path><g filter="url(#filter5_f_2973_168)"><path d="M1012.06 226.788C1012.87 226.843 1013.56 226.239 1013.62 225.437C1013.67 224.636 1013.07 223.941 1012.27 223.885C1011.46 223.83 1010.77 224.434 1010.71 225.236C1010.66 226.038 1011.26 226.732 1012.06 226.788Z" fill="#4253E7"></path></g><path d="M1690.4 254.847C1690.81 254.875 1691.15 254.573 1691.18 254.172C1691.21 253.771 1690.91 253.424 1690.5 253.396C1690.1 253.368 1689.76 253.671 1689.73 254.071C1689.7 254.472 1690 254.82 1690.4 254.847Z" fill="white" fill-opacity="0.6"></path><path d="M1890.68 216.232C1891.48 216.287 1892.17 215.683 1892.23 214.881C1892.29 214.079 1891.68 213.385 1890.88 213.329C1890.08 213.274 1889.38 213.878 1889.33 214.68C1889.27 215.481 1889.88 216.176 1890.68 216.232Z" fill="#4253E7"></path><path d="M1860.07 195.15C1860.87 195.206 1861.57 194.601 1861.62 193.799C1861.68 192.998 1861.07 192.303 1860.27 192.248C1859.47 192.192 1858.77 192.797 1858.72 193.598C1858.66 194.4 1859.27 195.095 1860.07 195.15Z" fill="#4253E7"></path><g filter="url(#filter6_f_2973_168)"><path d="M1763.41 316.779C1763.81 316.807 1764.15 316.505 1764.18 316.104C1764.21 315.703 1763.91 315.356 1763.51 315.328C1763.11 315.3 1762.76 315.603 1762.73 316.003C1762.7 316.404 1763 316.752 1763.41 316.779Z" fill="white" fill-opacity="0.8"></path></g><g filter="url(#filter7_f_2973_168)"><path d="M437.346 134.456C437.747 134.484 438.094 134.182 438.122 133.781C438.149 133.38 437.847 133.033 437.446 133.005C437.046 132.977 436.698 133.279 436.67 133.68C436.643 134.081 436.945 134.428 437.346 134.456Z" fill="#4253E7"></path></g><path d="M234.213 193.288C235.015 193.344 235.71 192.739 235.765 191.938C235.821 191.136 235.216 190.441 234.415 190.386C233.613 190.33 232.918 190.935 232.863 191.736C232.807 192.538 233.412 193.233 234.213 193.288Z" fill="#4253E7"></path><g filter="url(#filter8_f_2973_168)"><path d="M191.907 88.2791C192.708 88.3346 193.403 87.7299 193.459 86.9284C193.514 86.1268 192.909 85.432 192.108 85.3765C191.306 85.3209 190.612 85.9256 190.556 86.7272C190.5 87.5287 191.105 88.2235 191.907 88.2791Z" fill="#4253E7"></path></g><g filter="url(#filter9_f_2973_168)"><path d="M41.3343 51.5921C42.1359 51.6476 42.8307 51.0429 42.8862 50.2414C42.9418 49.4398 42.3371 48.745 41.5355 48.6895C40.734 48.6339 40.0392 49.2386 39.9836 50.0402C39.9281 50.8417 40.5328 51.5365 41.3343 51.5921Z" fill="#8793FF"></path></g><defs><filter id="filter0_d_2973_168" x="-111.585" y="0.528168" width="2134.04" height="352.517" filterUnits="userSpaceOnUse" color-interpolation-filters="sRGB"><feGaussianBlur stdDeviation="3.96468"></feGaussianBlur></filter><filter id="filter1_d_2973_168" x="-113.306" y="31.1775" width="2136.14" height="291.024" filterUnits="userSpaceOnUse" color-interpolation-filters="sRGB"><feGaussianBlur stdDeviation="2.47792"></feGaussianBlur></filter><filter id="filter2_d_2973_168" x="-114.002" y="24.1574" width="2136.15" height="291.024" filterUnits="userSpaceOnUse" color-interpolation-filters="sRGB"><feGaussianBlur stdDeviation="2.47792"></feGaussianBlur></filter><filter id="filter3_d_2973_168" x="-119.858" y="52.9416" width="2140.7" height="253.885" filterUnits="userSpaceOnUse" color-interpolation-filters="sRGB"><feGaussianBlur stdDeviation="2.47792"></feGaussianBlur></filter><filter id="filter4_d_2973_168" x="-122.203" y="54.1179" width="2144.61" height="216.669" filterUnits="userSpaceOnUse" color-interpolation-filters="sRGB"><feGaussianBlur stdDeviation="2.47792"></feGaussianBlur></filter><filter id="filter5_f_2973_168" x="1008.73" y="221.899" width="6.87436" height="6.87434" filterUnits="userSpaceOnUse" color-interpolation-filters="sRGB"><feGaussianBlur stdDeviation="0.991169"></feGaussianBlur></filter><filter id="filter6_f_2973_168" x="1761.74" y="314.335" width="3.43717" height="3.43742" filterUnits="userSpaceOnUse" color-interpolation-filters="sRGB"><feGaussianBlur stdDeviation="0.495584"></feGaussianBlur></filter><filter id="filter7_f_2973_168" x="434.686" y="131.021" width="5.41951" height="5.41975" filterUnits="userSpaceOnUse" color-interpolation-filters="sRGB"><feGaussianBlur stdDeviation="0.991169"></feGaussianBlur></filter><filter id="filter8_f_2973_168" x="188.57" y="83.3907" width="6.87434" height="6.87434" filterUnits="userSpaceOnUse" color-interpolation-filters="sRGB"><feGaussianBlur stdDeviation="0.991169"></feGaussianBlur></filter><filter id="filter9_f_2973_168" x="37.9978" y="46.7037" width="6.87434" height="6.87434" filterUnits="userSpaceOnUse" color-interpolation-filters="sRGB"><feGaussianBlur stdDeviation="0.991169"></feGaussianBlur></filter><linearGradient id="paint0_linear_2973_168" x1="416.085" y1="168.76" x2="306.761" y2="152.744" gradientUnits="userSpaceOnUse"><stop stop-color="#4253E7"></stop><stop offset="1" stop-color="#4253E7" stop-opacity="0"></stop></linearGradient><linearGradient id="paint1_linear_2973_168" x1="1609.02" y1="200.097" x2="1485.98" y2="203.086" gradientUnits="userSpaceOnUse"><stop stop-color="#6B7AFF"></stop><stop offset="1" stop-color="#4253E7" stop-opacity="0"></stop></linearGradient><linearGradient id="paint2_linear_2973_168" x1="1194.1" y1="225.415" x2="1097.93" y2="243.335" gradientUnits="userSpaceOnUse"><stop stop-color="#537FFF"></stop><stop offset="1" stop-color="#537FFF" stop-opacity="0"></stop></linearGradient><linearGradient id="paint3_linear_2973_168" x1="713.613" y1="184.209" x2="555.033" y2="178.883" gradientUnits="userSpaceOnUse"><stop stop-color="#4253E7"></stop><stop offset="1" stop-color="#4253E7" stop-opacity="0"></stop></linearGradient><linearGradient id="paint4_linear_2973_168" x1="416.085" y1="168.76" x2="306.761" y2="152.744" gradientUnits="userSpaceOnUse"><stop stop-color="#4253E7"></stop><stop offset="1" stop-color="#4253E7" stop-opacity="0"></stop></linearGradient><linearGradient id="paint5_linear_2973_168" x1="1609.02" y1="200.097" x2="1485.98" y2="203.086" gradientUnits="userSpaceOnUse"><stop stop-color="#6B7AFF"></stop><stop offset="1" stop-color="#4253E7" stop-opacity="0"></stop></linearGradient><linearGradient id="paint6_linear_2973_168" x1="1194.09" y1="225.416" x2="1097.93" y2="243.336" gradientUnits="userSpaceOnUse"><stop stop-color="#537FFF"></stop><stop offset="1" stop-color="#537FFF" stop-opacity="0"></stop></linearGradient><linearGradient id="paint7_linear_2973_168" x1="713.613" y1="184.209" x2="555.033" y2="178.883" gradientUnits="userSpaceOnUse"><stop stop-color="#4253E7"></stop><stop offset="1" stop-color="#4253E7" stop-opacity="0"></stop></linearGradient></defs></svg>