<svg xmlns="http://www.w3.org/2000/svg" width="465" height="225" viewBox="0 0 465 225" fill="none"><path fill-rule="evenodd" clip-rule="evenodd" d="M459.333 120.581L459.332 120.585C456 130.185 451.507 138.582 445.845 145.76C440.206 152.908 433.5 159.334 425.735 165.039L425.728 165.044C417.976 170.66 409.864 175.29 401.391 178.933C395.572 181.435 389.512 183.598 383.213 185.425C406.398 186.577 428.267 189.242 448.819 193.422L449.891 193.64V224.807L448.28 224.473C407.977 216.115 363.355 211.932 314.408 211.932H313.069V180.981L314.371 180.945C337.396 180.307 356.892 177.664 372.889 173.043C372.536 173.049 372.189 173.051 371.848 173.051C361.11 173.051 350.84 171.102 341.047 167.201L341.038 167.197C331.256 163.221 322.617 157.688 315.132 150.601C307.618 143.487 301.644 134.553 297.196 123.83L297.193 123.822C292.814 113.075 290.633 101.351 290.633 88.6652C290.633 71.9441 294.241 56.8824 301.483 43.5114C308.727 30.058 319.005 19.5009 332.296 11.8595C345.599 4.13341 360.713 0.285156 377.604 0.285156C394.259 0.285156 409.214 4.05469 422.436 11.6211C435.654 19.186 445.932 29.7839 453.253 43.3893C460.654 56.9201 464.339 72.2581 464.339 89.37C464.339 100.469 462.674 110.876 459.333 120.581ZM332.968 13.0186C319.89 20.5362 309.788 30.9122 302.662 44.1465C295.536 57.3024 291.973 72.142 291.973 88.6652C291.973 101.195 294.126 112.745 298.433 123.317C302.819 133.889 308.692 142.659 316.053 149.629C323.414 156.598 331.911 162.041 341.543 165.956C351.175 169.793 361.276 171.712 371.848 171.712C373.709 171.712 375.771 171.624 378.033 171.449C379.769 171.314 381.623 171.128 383.595 170.89C381.878 171.545 380.113 172.172 378.3 172.771C361.257 178.405 339.96 181.576 314.408 182.284V210.592C362.889 210.592 407.157 214.69 447.213 222.885C447.66 222.977 448.106 223.069 448.552 223.161V194.735C426.866 190.324 403.697 187.604 379.043 186.575C377.434 186.508 375.819 186.448 374.197 186.395C375.779 186.026 377.345 185.637 378.898 185.228C386.571 183.207 393.892 180.699 400.862 177.703C409.241 174.1 417.267 169.519 424.942 163.959C432.616 158.321 439.233 151.978 444.793 144.93C450.353 137.882 454.777 129.621 458.066 120.145C461.355 110.592 463 100.333 463 89.37C463 72.4552 459.359 57.3415 452.076 44.029C444.871 30.6381 434.77 20.223 421.77 12.7836C408.771 5.34427 394.049 1.62459 377.604 1.62459C360.924 1.62459 346.045 5.42258 332.968 13.0186ZM412.412 48.0704L412.409 48.0667C403.515 37.577 391.877 32.3299 377.369 32.3299C362.938 32.3299 351.337 37.5388 342.444 47.9529C333.612 58.3081 329.139 71.9148 329.139 88.9001C329.139 106.04 333.689 119.721 342.672 130.074C351.645 140.417 363.25 145.588 377.604 145.588C391.961 145.588 403.525 140.453 412.418 130.192C421.322 119.919 425.834 106.278 425.834 89.135C425.834 72.1526 421.324 58.5057 412.412 48.0704ZM341.425 47.083C332.341 57.7331 327.799 71.6721 327.799 88.9001C327.799 106.285 332.419 120.302 341.66 130.952C350.9 141.602 362.882 146.927 377.604 146.927C392.326 146.927 404.268 141.641 413.43 131.07C422.592 120.498 427.174 106.52 427.174 89.135C427.174 71.907 422.592 57.9288 413.43 47.2005C404.268 36.3938 392.248 30.9905 377.369 30.9905C362.569 30.9905 350.587 36.3547 341.425 47.083ZM288.412 174.931H249.936L237.133 141.219H163.925L151.239 174.931H111.236L177.704 3.80901H221.705L288.412 174.931ZM162.998 139.879H238.057L250.861 173.591H286.452L220.79 5.14845H178.62L113.193 173.591H150.312L162.998 139.879ZM122.872 3.80901V34.9141H38.2986V76.0492H110.186V107.037H38.2986V174.931H0.967957V3.80901H122.872ZM36.9592 173.591H2.30739V5.14845H121.533V33.5747H36.9592V77.3886H108.847V105.697H36.9592V173.591ZM173.569 111.571H227.485L200.586 39.8002L173.569 111.571ZM200.583 43.6095L175.505 110.231H225.553L200.583 43.6095Z" fill="url(#paint0_linear_399_242)"></path><path fill-rule="evenodd" clip-rule="evenodd" d="M459.333 120.581L459.332 120.585C456 130.185 451.507 138.582 445.845 145.76C440.206 152.908 433.5 159.334 425.735 165.039L425.728 165.044C417.976 170.66 409.864 175.29 401.391 178.933C395.572 181.435 389.512 183.598 383.213 185.425C406.398 186.577 428.267 189.242 448.819 193.422L449.891 193.64V224.807L448.28 224.473C407.977 216.115 363.355 211.932 314.408 211.932H313.069V180.981L314.371 180.945C337.396 180.307 356.892 177.664 372.889 173.043C372.536 173.049 372.189 173.051 371.848 173.051C361.11 173.051 350.84 171.102 341.047 167.201L341.038 167.197C331.256 163.221 322.617 157.688 315.132 150.601C307.618 143.487 301.644 134.553 297.196 123.83L297.193 123.822C292.814 113.075 290.633 101.351 290.633 88.6652C290.633 71.9441 294.241 56.8824 301.483 43.5114C308.727 30.058 319.005 19.5009 332.296 11.8595C345.599 4.13341 360.713 0.285156 377.604 0.285156C394.259 0.285156 409.214 4.05469 422.436 11.6211C435.654 19.186 445.932 29.7839 453.253 43.3893C460.654 56.9201 464.339 72.2581 464.339 89.37C464.339 100.469 462.674 110.876 459.333 120.581ZM332.968 13.0186C319.89 20.5362 309.788 30.9122 302.662 44.1465C295.536 57.3024 291.973 72.142 291.973 88.6652C291.973 101.195 294.126 112.745 298.433 123.317C302.819 133.889 308.692 142.659 316.053 149.629C323.414 156.598 331.911 162.041 341.543 165.956C351.175 169.793 361.276 171.712 371.848 171.712C373.709 171.712 375.771 171.624 378.033 171.449C379.769 171.314 381.623 171.128 383.595 170.89C381.878 171.545 380.113 172.172 378.3 172.771C361.257 178.405 339.96 181.576 314.408 182.284V210.592C362.889 210.592 407.157 214.69 447.213 222.885C447.66 222.977 448.106 223.069 448.552 223.161V194.735C426.866 190.324 403.697 187.604 379.043 186.575C377.434 186.508 375.819 186.448 374.197 186.395C375.779 186.026 377.345 185.637 378.898 185.228C386.571 183.207 393.892 180.699 400.862 177.703C409.241 174.1 417.267 169.519 424.942 163.959C432.616 158.321 439.233 151.978 444.793 144.93C450.353 137.882 454.777 129.621 458.066 120.145C461.355 110.592 463 100.333 463 89.37C463 72.4552 459.359 57.3415 452.076 44.029C444.871 30.6381 434.77 20.223 421.77 12.7836C408.771 5.34427 394.049 1.62459 377.604 1.62459C360.924 1.62459 346.045 5.42258 332.968 13.0186ZM412.412 48.0704L412.409 48.0667C403.515 37.577 391.877 32.3299 377.369 32.3299C362.938 32.3299 351.337 37.5388 342.444 47.9529C333.612 58.3081 329.139 71.9148 329.139 88.9001C329.139 106.04 333.689 119.721 342.672 130.074C351.645 140.417 363.25 145.588 377.604 145.588C391.961 145.588 403.525 140.453 412.418 130.192C421.322 119.919 425.834 106.278 425.834 89.135C425.834 72.1526 421.324 58.5057 412.412 48.0704ZM341.425 47.083C332.341 57.7331 327.799 71.6721 327.799 88.9001C327.799 106.285 332.419 120.302 341.66 130.952C350.9 141.602 362.882 146.927 377.604 146.927C392.326 146.927 404.268 141.641 413.43 131.07C422.592 120.498 427.174 106.52 427.174 89.135C427.174 71.907 422.592 57.9288 413.43 47.2005C404.268 36.3938 392.248 30.9905 377.369 30.9905C362.569 30.9905 350.587 36.3547 341.425 47.083ZM288.412 174.931H249.936L237.133 141.219H163.925L151.239 174.931H111.236L177.704 3.80901H221.705L288.412 174.931ZM162.998 139.879H238.057L250.861 173.591H286.452L220.79 5.14845H178.62L113.193 173.591H150.312L162.998 139.879ZM122.872 3.80901V34.9141H38.2986V76.0492H110.186V107.037H38.2986V174.931H0.967957V3.80901H122.872ZM36.9592 173.591H2.30739V5.14845H121.533V33.5747H36.9592V77.3886H108.847V105.697H36.9592V173.591ZM173.569 111.571H227.485L200.586 39.8002L173.569 111.571ZM200.583 43.6095L175.505 110.231H225.553L200.583 43.6095Z" fill="url(#paint1_linear_399_242)"></path><defs><linearGradient id="paint0_linear_399_242" x1="2.30737" y1="112.393" x2="463" y2="112.393" gradientUnits="userSpaceOnUse"><stop stop-color="#2254EA"></stop><stop offset="1" stop-color="#3AC6FD"></stop></linearGradient><linearGradient id="paint1_linear_399_242" x1="232.654" y1="1.625" x2="232.654" y2="156.034" gradientUnits="userSpaceOnUse"><stop stop-color="#0A091D" stop-opacity="0"></stop><stop offset="1" stop-color="#0A091D"></stop></linearGradient></defs></svg>