<?xml version="1.0" encoding="UTF-8"?>
<svg version="1.1" viewBox="0 0 2048 615" width="792" height="238" xmlns="http://www.w3.org/2000/svg">
<path transform="translate(313,464)" d="m0 0h251l1 3-22 108-4 10-8 7-9 3-9 1h-249l2-12 19-95 4-12 6-7 7-4zm29 40-3 4v3h5l2-3v-3zm190 0-2 14-2-1h-10l-6 3-5 6-3 10 1 8 5 5 6 1 7-3 2-2 2 4 4-1 6-36 1-8zm-233 1-6 32-1 11h6l4-22h20l-3 17v5l5 1 2-2 7-40v-2h-7l-3 15v3h-20l2-18zm40 12-2 5-4 22v4l5 1 1-1 5-30zm12 0-3 12-5 28-1 5 5 1 2-3 1-6v-8l5 3h9l6-4 5-8 1-5v-8l-4-6-2-1h-9l-7 3v-3zm40 0-8 5-4 8-1 11 4 6 3 2h14l4-2v-3l-14 1-3-2-1-3v-7l20-1 2-2v-8l-5-5zm24 0-2 5-4 26 4 1 2-2 3-18 1-5 10-3 2-3-1-1-7 1-5 4v-5zm26 0-6 3-4 4-3 7v12l4 5 3 1h11l4-2v-3l-10 1-5-1-1-8 2-9 2-4 7-2h9l-1-4zm23 0-3 1v3l15 1 1 1v5l-13 1-7 3-3 6 1 8 3 3 6 1 7-3 3-3 2 5 3-1 4-22-1-6-4-3zm27 0-5 27v5l5-1 4-19 4-6 1-1 7-1-1-4h-5l-6 4v-4z" fill="#42475C"/>
<path transform="translate(705,449)" d="m0 0h220l8 5 3 5 1 5v72l-18 1-4 1-1-1h-58l-3 1-3-1-25-1v2l-5-1h-32l-1 4-3 2-5-6-36-1v40l10-1 26-1 4-5 3 1 3 4 22 1v-9l12-1 1 1v7l2 2h16l-1-10h3v10h18l43-1 3-1 2 2 26-1 1 1v21l-2 7-5 6-5 2h-220l-7-4-4-7-1-52 1-22h12l2-6 3-1 4 1 1 6h24l1-4 1 4 11-1 2-2v3h56l1-10h3l1 10h28v-2l5 1h18l2-5 6-1 2 1 1 6h24v-5h2l1 5h19v-39h-40v5l-2-1v-4l-32 1-6 1-1-1h-20l-71-1-3 10-3-1-3-8-20-1v4h-2l-1-4-17 1-5 11-3 7-2-3v-37l2-8 6-7z" fill="#42475C"/>
<path transform="translate(1127,461)" d="m0 0h15l17 4 12 5v2l5 2 4 2h3v-2l7-2 1 2 3 1 1 1 1-2 5 1-1 3 7 3v2l3 1 1-3h1l1 5h3l1 2 5-1 1 3 3 1 4 5 1-8 3 4 2 2h2l1-2 2 1-1 2h5l4 2 3 4 1 8 1 5v2l2 1v7l1 3-2 3h-2v8h-2v3h-3l1 4 1 5-4 5-7 4-2-2-4 1-2 7h-3l-2 2-3 1-2 2h-6v2h-2v3l3-2 1-2 3 1-1 4h-8l-3 2v2l-7 4h-2v2l-8 2v2l-4 1v-2h-2l1 6 4 2-9-1-12-5-21 7-6 1h-16l-16-4-14-7-12-10-8-10-7-14-3-12-1-7v-10l3-16 8-16 8-11 8-7 11-7 13-5zm62 14m-9 2m5 0m-4 1 2 2 1-2zm2 2 3 3v-3zm21 1m-18 2m1 1m1 1m1 1 2 5 2 1-2-6zm20 2m10 1m-10 1m12 0 1 2zm-28 2 2 5 1-3zm31 0m-2 2m-5 1m17 1 1 4zm4 0 1 2zm-42 1 1 2zm44 0 1 2zm-43 2 1 2zm49 0 2 3v-3zm3 0 1 2zm-20 1m-31 1 2 4-1-4zm44 0m6 1-1 4 4-1v-3zm-7 1m-41 4m1 1 1 7h1l-1-7zm49 0m1 4m-4 3m-44 1v5h1v-5zm39 3m6 0m3 0m2 0v2l2-1zm-48 1m36 0m12 2m-49 1-2 21-2 7 1 4 4-8 2-14h-2v-10zm49 2-1 2h2zm-47 6m41 0m4 1 1 2zm-5 1m4 1 1 2zm-3 3m-7 2m4 0m-1 6m2 0m-3 1-3 4h4zm2 0m-9 2m11 0v2l3-1zm-3 2m2 1m-3 1m-8 1m4 0v3h3l-1-3zm5 0 1 2zm-44 2-8 15-4 6h3l4-5 2-5 2-2 2-9zm29 1-1 2 3 1-1-3zm-26 1m29 0m-5 4 1 3 3-2zm4 0m-8 1m-3 3 3 2v-2zm-10 9-1 2h2zm-23 2-2 3 3-1zm-3 3-1 2h2zm19 1m-21 1-2 3 3-1zm-3 3 1 2zm18 0m-15 2m7 1-1 2h2z" fill="#41465B"/>
<path transform="translate(38,453)" d="m0 0h42l14 1 10 3 8 5 6 7 3 8 1 12 8 7 4 7 2 8-1 14-3 11-5 10-8 9-10 6-15 4h-16l-4 29-3 10-4 3h-30l-4-4 1-11 1-4h-27l-3-2 1-14 17-108 3-10zm82 43-3 8-8 16-9 8-10 5-12 3-28 1-2 4-9 56v4h27l2-7 5-29 3-4 4-1 16-1 12-4 6-4 5-5 6-8 4-12 1-6v-10l-4-10-3-4z" fill="#42475C"/>
<path transform="translate(1425,492)" d="m0 0h16l8 4 9 9 8 7 6 6v2h2v2l4 2 6 2 6-2 8-7 14-14 4-5 8-5h18l19 19 5 8 2 7-1 10-5 10-21 21h-12l-9-3-28-28-6-3-6 1-8 6-24 24-9 3h-14l-21-21-6-12v-9l3-9 9-10z" fill="#41465B"/>
<path transform="translate(1992,476)" d="m0 0h28l3 9 20 97v2l-12 1h-13l-2-1-3-15h-35l-5 15h-31l10-24 17-41 14-34 5-7zm7 32-12 34v4h21l1-2-8-36z" fill="#42475C"/>
<path transform="translate(1799,475)" d="m0 0 29 1-6 16-19 45-17 41-3 6h-31l-8-30-15-58-4-6-12-5-16-5-1-4h53l5 3 4 8 11 58 1 1 6-17 12-29 9-23z" fill="#42475C"/>
<path transform="translate(762,173)" d="m0 0 11 1 8 5 5 7 5-5 5-4 6-3 10-1 11 2 8 6 4 6 2 6v61h-22l-1-53-3-6-3-2h-10l-5 3-3 7-1 51h-21l-1-53-3-6-4-2h-9l-4 2-4 8-1 51-19 1-3-1v-79h21v11h2l2-4 8-7z" fill="#EDF4FD"/>
<path transform="translate(1287,174)" d="m0 0h18l8 4 7 8 1-11h21l1 1v79l-2 9-5 8-8 7-11 4-6 1h-17l-11-3-8-5-6-7-3-6v-3l21-1 4 5 10 4 9-1 7-4 3-9v-11l-9 8-9 3h-13l-8-3-6-4-5-6-4-8-2-8v-22l4-12 6-9 8-6zm11 18-5 3-4 5-3 10v9l3 10 4 5 6 3h9l6-4 4-5 3-10-1-12-5-10-6-4z" fill="#EDF4FD"/>
<path transform="translate(1922,473)" d="m0 0 16 2 11 3-1 10-3 13-2 1-14-4h-14l-8 4-1 6 5 5 17 10 11 9 5 10v14l-3 9-7 9-8 6-10 4-8 2h-26l-17-4-1-1 1-9 3-15 6 1 13 4h17l8-4 1-2v-6l-5-5-17-10-10-9-5-8-1-4v-10l4-10 6-8 9-6 9-4 9-2z" fill="#42475C"/>
<path transform="translate(888,174)" d="m0 0h17l9 4 6 5 6 10 3 12v19l-3 12-6 10-7 6-7 3-12 1-9-2-9-6-3-4-1 36h-22v-105h22l1 10 7-7zm-5 18-6 5-4 8-1 5v10l4 11 7 6 9 1 8-4 5-7 1-4v-17l-5-10-6-4z" fill="#EDF4FD"/>
<path transform="translate(1189,472)" d="m0 0 5 3 1 1 1-2 5 1-1 3 7 3v2l3 1 1-3h1l1 5h3l1 2 5-1 1 3 3 1 4 5 1-8 3 4 2 2h2l1-2 2 1-1 2h5l4 2 3 4 1 8 1 5v2l2 1v7l1 3-2 3h-2v8h-2v3h-3l1 4 1 5-4 5-7 4-2-2-4 1-2 7h-3l-2 2-3 1-2 2h-6v2h-2v3l3-2 1-2 3 1-1 4h-8l-3 2v2l-7 4h-2v2l-8 2v2l-4 1v-2h-2l1 6 4 2-9-1-12-5v-2l9-5 3-1 1-2h2v-2l3-3h3l2-4 5-9 6-15 2-7 1-6 1-2h-2l-2 4v-18l-1-4-1-7h-2v-6l-5-9-3-5v-2l-4-2-1-4-3-1-3-3h3v-2zm0 3m-4 2m19 4m5 7m10 1m-10 1m12 0 1 2zm3 2m-2 2m-5 1m17 1 1 4zm4 0 1 2zm2 1 1 2zm6 2 2 3v-3zm3 0 1 2zm-20 1m13 1m6 1-1 4 4-1v-3zm-7 1m9 5m1 4m-4 3m-5 4m6 0m3 0m2 0v2l2-1zm-48 1m36 0m12 2m0 3-1 2h2zm-47 6m41 0m4 1 1 2zm-5 1m4 1 1 2zm-3 3m-7 2m4 0m-1 6m2 0m-3 1-3 4h4zm2 0m-9 2m11 0v2l3-1zm-3 2m2 1m-3 1m-8 1m4 0v3h3l-1-3zm5 0 1 2zm-15 3-1 2 3 1-1-3zm-26 1m29 0m-5 4 1 3 3-2zm4 0m-8 1m-3 3 3 2v-2zm-10 9-1 2h2zm-7 6m-6 4m-15 2m7 1-1 2h2z" fill="#A0A2AC"/>
<path transform="translate(1022,173)" d="m0 0h12l10 2 9 5 6 7 3 8v59h-21l-1-9-7 6-8 4-12 1-9-2-6-4-6-7-2-4-1-9 2-8 4-6 5-4 11-4 23-2 5-1v-7l-3-5-4-2h-10l-5 3-4 6-20-1 1-7 3-6 5-5 5-4 8-3zm6 47-12 2-4 5v6l4 5 5 2 9-1 7-5 3-5v-9z" fill="#EDF4FD"/>
<path transform="translate(1525,173)" d="m0 0h13l12 3 8 6 6 8 1 4v60h-21v-10l-5 5-8 5-10 2-11-1-8-4-7-8-2-5v-13l4-8 8-6 9-3 23-2 5-1v-7l-3-5-4-2h-10l-5 3-4 6-20-1 2-9 4-6 7-6 10-4zm7 47-12 2-5 5v6l4 5 5 2 9-1 8-6 2-4v-9z" fill="#EDF4FD"/>
<path transform="translate(1212,173)" d="m0 0h12l12 3 11 8 6 10 3 12v14l-54 1 2 8 4 6 5 3 9 1 8-3 5-6h20l-1 7-6 9-8 6-9 3-5 1h-15l-13-4-10-9-5-8-3-10v-20l4-12 6-9 7-6 10-4zm1 17-6 4-4 6-1 6h33l-3-10-6-5-2-1z" fill="#EDF4FD"/>
<path transform="translate(664,173)" d="m0 0h12l12 3 9 6 7 8 4 10 2 10v8l-3 15-5 9-4 5-10 6-11 3h-15l-10-3-8-5-8-9-4-10-1-4v-20l4-13 7-9 8-6 8-3zm3 17-6 3-5 6-3 10v12l3 9 6 7 5 2h7l8-5 4-8 1-5v-13l-4-11-7-6z" fill="#EDF4FD"/>
<path transform="translate(1356,175)" d="m0 0h21l1 1v43l1 9 4 6 4 2h10l6-4 3-5 1-52h22v79h-21l-1-10-7 8-6 3-6 1h-8l-9-2-8-6-5-7-2-6-1-9v-50z" fill="#EDF4FD"/>
<path transform="translate(1130,173)" d="m0 0h13l10 2 8 4 7 8 3 8-1 4h-19l-5-7-5-2h-9l-5 3-1 6 5 4 28 7 9 6 4 6 1 4v7l-3 9-6 7-10 5-10 2h-15l-11-3-8-5-5-6-3-7v-5h21l3 5v2l6 2h12l5-3 1-5-4-4-15-4-14-4-6-4-5-6-2-4-1-8 3-10 7-8 11-5z" fill="#EDF4FD"/>
<path transform="translate(1482,541)" d="m0 0 5 1 28 28 9 4 8 2-6 7-25 25-10 6-4 1h-9l-9-4-8-7-27-27 3-2 10-2 8-5z" fill="#41465B"/>
<path transform="translate(1480,445)" d="m0 0 11 1 10 6 32 32v1l-12 2-8 5-26 26-5 1-29-29-9-4-10-1 3-5 29-29 9-5z" fill="#42475C"/>
<path transform="translate(581,173)" d="m0 0h13l9 2 10 6 7 8 3 7 1 8-1 1h-19l-6-10-5-3h-11l-6 5-4 10v15l4 10 6 5h12l5-3 3-5 1-4h21l-1 8-5 10-4 5-8 5-11 3h-16l-12-4-10-9-5-8-3-10v-20l4-13 6-8 7-6 10-4z" fill="#EDF4FD"/>
<path transform="translate(1840,475)" d="m0 0h11l17 1-5 26-17 80-1 2h-29l19-90 4-18z" fill="#42475C"/>
<path transform="translate(1476,174)" d="m0 0h13v20h-13l-7 4-3 7-1 49h-22v-79h21l1 10 4-6 5-4z" fill="#EDF4FD"/>
<path transform="translate(973,174)" d="m0 0h13v19l-14 1-6 4-3 6-1 50-19 1-3-1v-79h21l1 9 7-8z" fill="#EDF4FD"/>
<path transform="translate(748,541)" d="m0 0h28l5 5 4 3 7-8h27l6 3 1 3v9l-4 4-7 1h-9v9h-15l-6-7-4 2-5 5h-28zm49 6-7 8 2 5 5 6 2-2v-16zm-41 1v4l14 1v5l-14 1-1 4 1 1h14l5-3 3-4-2-5-4-4zm50 0v7h10l2-1v-5l-1-1z" fill="#44495D"/>
<path transform="translate(851,492)" d="m0 0h11v7l-10 1-2 2v9l3 3 5 1 3-9 6-13 1-1h10l7 14 3 9 1-2 1-21h10l7 10 3 5v2h2l-1-2v-14l1-1h7v29h-10l-7-10-5-8v11l-1 7h-14l-2-6h-14l-2 6-4 1-12-1-5-5-2-5v-8l3-7 4-3zm21 8-3 9h7l-1-6z" fill="#454A5E"/>
<path transform="translate(706,492)" d="m0 0h10l3 4 8 19 1-23h11l3 4 6 13 5-11 3-6h12v29h-8l-1-18-7 17-1 1h-7l-8-17-1 17h-15l-2-5-14-1-2 6h-8l3-9 8-19zm4 8-2 5 1 4 6-1-3-8z" fill="#43485D"/>
<path transform="translate(1215,464)" d="m0 0 8 1 16 8 10 8 8 9 8 15 4 17v15l-4 18-7 13-7 9-10 9-15 8-10 3-4-1 4-3 7-1 9-5 10-6 6-7 1-3 3-3h2l2-5 5-13h2l-1-5 1-6v-9l-1-11h-3l1-5-1-4-2-7h-2l-3-6v-2l-3-1-1-4-2-1-2-4-5-5-2-4-4-4-11-5-7-2z" fill="#A0A2AC"/>
<path transform="translate(800,492)" d="m0 0h22l5 3 1 9-3 4 2 2 1 11h-8l-2-9-11-1v10h-7zm7 7v5h12v-5z" fill="#454A5E"/>
<path transform="translate(829,541)" d="m0 0h22l5 3 1 9-1 2h-2v3h2v12h-7l-1-10-11 1-1 9h-7zm7 7v5h12v-5z" fill="#454A5E"/>
<path transform="translate(860,541)" d="m0 0h24v6l-3 1h-14v4h16v7h-16l1 4 15 1v6h-23z" fill="#454A5E"/>
<path transform="translate(892,541)" d="m0 0h18v7h-16v4h10l6 2 1 2v10l-4 4h-20v-6l17-1-1-2-12-2-4-3-1-8 3-6z" fill="#44495E"/>
<path transform="translate(773,492)" d="m0 0h22l1 1v5l-2 1h-15l1 4h15v7h-16l1 4 16 1v6h-23l-1-10v-14z" fill="#474B60"/>
<path transform="translate(919,541)" d="m0 0h17l1 1v6l-16 1v2l13 2 2 1 1 9-1 6-3 1h-20l1-6 16-1v-3l-12-1-5-4v-9l3-4z" fill="#464B5F"/>
<path transform="translate(362,520)" d="m0 0 6 2 2 2v11l-4 8-4 3h-6l-4-4 1-13 2-7z" fill="#454A5E"/>
<path transform="translate(521,520)" d="m0 0 8 1v7l-3 12-4 5-8 1-3-3-1-9 3-9 4-4z" fill="#464B5F"/>
<path transform="translate(831,492)" d="m0 0h7l1 29h-7l-1-6z" fill="#474B60"/>
<path transform="translate(472,531)" d="m0 0 4 1-2 9-4 4-7 1-4-4 1-6 3-3z" fill="#484D61"/>
<path transform="translate(393,520)" d="m0 0 7 1 3 4-1 3-4 1-13-1 3-6z" fill="#4A4F63"/>
<path transform="translate(787,229)" d="m0 0 2 2v23h-21v-7l2 2 1 3 10-2h5z" fill="#FCFCFD"/>
<path transform="translate(851,272)" d="m0 0 1 2 2 1 1 2h9l6-1 1-4 1 2v6h-22z" fill="#FDFDFD"/>
<path transform="translate(1369,251)" d="m0 0 4 1 23 1-2 2-6 1h-8l-9-2-2-1z" fill="#FDFDFD"/>
<path transform="translate(1179,465)" d="m0 0 5 1-1 3-4 2-1 2-4-1-1-3-2-1z" fill="#A0A2AC"/>
<path transform="translate(885,252)" d="m0 0h24v2l-10 2-11-1-3-1z" fill="#FDFDFD"/>
<path transform="translate(1e3 252)" d="m0 0 23 1-2 2-12 1-9-2z" fill="#FDFDFD"/>
<path transform="translate(787,229)" d="m0 0 2 2v23l-3-6z" fill="#FAFBFD"/>
<path transform="translate(1508,253)" d="m0 0h23l-3 2-11 1-9-2z" fill="#FDFDFD"/>
<path transform="translate(1377,219)" d="m0 0h1l1 9 4 6-1 2-4-1-2-13z" fill="#FDFDFD"/>
<path transform="translate(1236,558)" d="m0 0h2l1 3-1 4h-2l-1-3z" fill="#A0A2AC"/>
<path transform="translate(904,488)" d="m0 0h3v3l-3-1z" fill="#4C5165"/>
<path transform="translate(1182,464)" d="m0 0h5l-1 2z" fill="#A0A2AC"/>
<path transform="translate(1225,567)" d="m0 0 2 2h-3z" fill="#A0A2AC"/>
<path transform="translate(1250,543)" d="m0 0h2v2l-3-1z" fill="#A0A2AC"/>
<path transform="translate(1255,533)" d="m0 0v3l-2-1z" fill="#A0A2AC"/>
<path transform="translate(1226,490)" d="m0 0h3l-1 2z" fill="#A0A2AC"/>
<path transform="translate(1182,470)" d="m0 0 3 1h-3z" fill="#A0A2AC"/>
<path transform="translate(1209,579)" d="m0 0 1 2-2-1z" fill="#A0A2AC"/>
<path transform="translate(1211,576)" d="m0 0" fill="#A0A2AC"/>
<path transform="translate(1252,541)" d="m0 0h2l-1 2z" fill="#A0A2AC"/>
<path transform="translate(1245,492)" d="m0 0h2l-1 2z" fill="#A0A2AC"/>
<path transform="translate(1179,474)" d="m0 0 2 1-2 1z" fill="#A0A2AC"/>
<path transform="translate(1211,594)" d="m0 0 2 1z" fill="#A0A2AC"/>
<path transform="translate(1222,570)" d="m0 0 2 1z" fill="#A0A2AC"/>
<path transform="translate(1242,558)" d="m0 0 2 1z" fill="#A0A2AC"/>
<path transform="translate(1258,523)" d="m0 0" fill="#A0A2AC"/>
<path transform="translate(1249,503)" d="m0 0" fill="#A0A2AC"/>
<path transform="translate(1224,489)" d="m0 0 2 1z" fill="#A0A2AC"/>
<path transform="translate(1244,486)" d="m0 0" fill="#A0A2AC"/>
<path transform="translate(1217,484)" d="m0 0" fill="#A0A2AC"/>
<path transform="translate(1192,597)" d="m0 0" fill="#A0A2AC"/>
<path transform="translate(1210,596)" d="m0 0" fill="#A0A2AC"/>
<path transform="translate(1232,586)" d="m0 0" fill="#A0A2AC"/>
<path transform="translate(1208,583)" d="m0 0" fill="#A0A2AC"/>
<path transform="translate(1213,578)" d="m0 0" fill="#A0A2AC"/>
<path transform="translate(1228,572)" d="m0 0" fill="#A0A2AC"/>
<path transform="translate(1236,570)" d="m0 0" fill="#A0A2AC"/>
<path transform="translate(1220,570)" d="m0 0" fill="#A0A2AC"/>
<path transform="translate(1229,569)" d="m0 0" fill="#A0A2AC"/>
<path transform="translate(1229,566)" d="m0 0" fill="#A0A2AC"/>
<path transform="translate(1253,565)" d="m0 0" fill="#A0A2AC"/>
<path transform="translate(1232,565)" d="m0 0" fill="#A0A2AC"/>
<path transform="translate(1228,565)" d="m0 0" fill="#A0A2AC"/>
<path transform="translate(1253,563)" d="m0 0" fill="#A0A2AC"/>
<path transform="translate(1233,560)" d="m0 0" fill="#A0A2AC"/>
<path transform="translate(1251,554)" d="m0 0" fill="#A0A2AC"/>
<path transform="translate(1238,554)" d="m0 0" fill="#A0A2AC"/>
<path transform="translate(1251,546)" d="m0 0" fill="#A0A2AC"/>
<path transform="translate(1252,545)" d="m0 0" fill="#A0A2AC"/>
<path transform="translate(1255,538)" d="m0 0" fill="#A0A2AC"/>
<path transform="translate(1254,532)" d="m0 0" fill="#A0A2AC"/>
<path transform="translate(1255,530)" d="m0 0" fill="#A0A2AC"/>
<path transform="translate(1256,521)" d="m0 0" fill="#A0A2AC"/>
<path transform="translate(1256,515)" d="m0 0" fill="#A0A2AC"/>
<path transform="translate(1255,513)" d="m0 0" fill="#A0A2AC"/>
<path transform="translate(1257,512)" d="m0 0" fill="#A0A2AC"/>
<path transform="translate(1254,512)" d="m0 0" fill="#A0A2AC"/>
<path transform="translate(1255,508)" d="m0 0" fill="#A0A2AC"/>
<path transform="translate(1256,507)" d="m0 0" fill="#A0A2AC"/>
<path transform="translate(1255,505)" d="m0 0" fill="#A0A2AC"/>
<path transform="translate(1253,503)" d="m0 0" fill="#A0A2AC"/>
<path transform="translate(1248,494)" d="m0 0" fill="#A0A2AC"/>
<path transform="translate(1243,493)" d="m0 0" fill="#A0A2AC"/>
<path transform="translate(1242,492)" d="m0 0" fill="#A0A2AC"/>
<path transform="translate(1243,490)" d="m0 0" fill="#A0A2AC"/>
<path transform="translate(1219,484)" d="m0 0" fill="#A0A2AC"/>
<path transform="translate(1207,482)" d="m0 0" fill="#A0A2AC"/>
<path transform="translate(1209,480)" d="m0 0" fill="#A0A2AC"/>
<path transform="translate(1206,479)" d="m0 0" fill="#A0A2AC"/>
<path transform="translate(1237,478)" d="m0 0" fill="#A0A2AC"/>
<path transform="translate(1198,474)" d="m0 0" fill="#A0A2AC"/>
<path transform="translate(1194,473)" d="m0 0" fill="#A0A2AC"/>
<path transform="translate(1180,472)" d="m0 0" fill="#A0A2AC"/>
<path transform="translate(1187,467)" d="m0 0" fill="#A0A2AC"/>
</svg>
