<svg xmlns="http://www.w3.org/2000/svg" width="242" height="38" viewBox="0 0 242 38" fill="none"><path fill-rule="evenodd" clip-rule="evenodd" d="M98.925 11.4818L98.7218 11.2352C97.5475 9.81029 96.1056 8.92582 94.4003 8.58443C92.2698 8.15783 89.9862 8.43688 88.1752 9.34507C86.0053 10.4332 84.3819 12.2597 83.4756 14.6322C82.7517 16.5273 82.6237 19.2267 83.1542 21.4128C84.0018 24.9067 86.6605 27.652 90.0136 28.4957C90.8205 28.6987 91.4367 28.7676 92.4483 28.7677C93.748 28.768 94.8427 28.5664 95.7345 28.1627C96.5903 27.7752 97.9343 26.7309 98.605 25.9323C98.7633 25.7438 98.902 25.5987 98.9131 25.6098C98.9243 25.621 99.0529 26.2313 99.1989 26.9661L99.4643 28.3022L103.923 28.3308V0.0581055H98.93L98.925 11.4818ZM71.6735 2.67514C71.3039 3.39036 70.6912 4.57343 70.3121 5.30422L69.6226 6.63287H73.681L75.8116 4.0977C76.9834 2.70335 77.9761 1.51989 78.0174 1.46779C78.0887 1.37826 77.935 1.37311 75.2191 1.37388L72.3454 1.3747L71.6735 2.67514ZM110.237 4.64044C110.127 4.78065 110.123 4.84388 110.123 6.83203V8.87925H106.502V28.3296H111.55V10.249H113.243C114.893 10.249 114.938 10.2461 115.04 10.1337C115.139 10.0242 115.145 9.88628 115.159 7.40354C115.174 4.81851 115.173 4.78701 115.059 4.64236L114.944 4.49607H110.351L110.237 4.64044ZM127.116 7.0027C127.306 7.89627 127.434 9.60143 127.319 9.71633C127.301 9.73479 127.085 9.64159 126.839 9.50933C125.157 8.60322 123.159 8.23317 121.09 8.44405C117.634 8.79608 115.095 10.9025 114.456 13.9481C113.971 16.2567 114.599 18.5459 116.171 20.1985L116.557 20.6042L116.18 21.0025C115.972 21.2215 115.259 21.9741 114.595 22.675C113.931 23.3759 113.34 24.0406 113.28 24.152C113.14 24.416 113.144 24.8526 113.29 25.1337C113.436 25.4161 114.223 26.0087 114.94 26.3757L115.504 26.6644L115.145 26.9549C114.143 27.767 113.421 28.8468 113.107 30.0053C112.951 30.5816 112.963 32.0124 113.131 32.6854C113.511 34.216 114.515 35.3679 116.187 36.1922C117.643 36.9102 119.048 37.2411 121.225 37.3784C123.706 37.535 125.885 37.1551 127.563 36.2728C129.188 35.4184 130.294 34.1381 130.827 32.4936C131.03 31.8681 131.104 31.3317 131.098 30.5486C131.086 28.9694 130.628 27.8052 129.632 26.8229C129.051 26.2495 128.448 25.8692 127.587 25.5329C126.431 25.0815 125.311 24.859 123.045 24.6304C120.73 24.3967 119.385 24.1511 118.591 23.8167C118.417 23.7436 118.268 23.6626 118.26 23.6365C118.251 23.6104 118.559 23.2764 118.944 22.8943L119.643 22.1994L120.137 22.3035C121.317 22.5522 122.825 22.5732 124.083 22.3583C126.513 21.9436 128.491 20.5596 129.437 18.6122C130.007 17.44 130.179 16.5912 130.137 15.1619C130.107 14.1611 129.996 13.5736 129.698 12.8353L129.564 12.5048L129.864 12.0481C130.768 10.6748 131.225 8.90763 131.085 7.32936C131.056 7.00424 131.018 6.71456 131 6.68558C130.98 6.65342 130.201 6.63287 129.002 6.63287H127.037L127.116 7.0027ZM49.4372 7.98168C47.4154 8.16589 45.7187 8.71685 44.3804 9.62379C42.9531 10.591 41.9481 11.7349 41.2077 13.235C40.4311 14.8087 40.1092 16.3049 40.1092 18.3424C40.1092 19.8323 40.2906 21.0498 40.6912 22.2479C41.6138 25.0077 43.7624 27.1802 46.508 28.129C47.1457 28.3494 48.0797 28.5646 48.8336 28.6649C49.4972 28.7532 51.3364 28.754 52.0161 28.6663C54.1546 28.3902 55.8762 27.6669 57.3212 26.4373C57.8602 25.9786 58.1499 25.67 58.7857 24.8778C60.0247 23.334 60.8362 22.1541 61.48 20.9605L63.2616 17.8288C63.3202 17.7259 63.4294 17.6624 63.5478 17.6624H64.083C64.2481 17.6624 64.3541 17.8377 64.2774 17.9838L62.2966 21.7583C62.2966 21.7583 63.4099 24.9479 65.1269 26.4122C66.4328 27.5259 67.8539 28.216 69.6019 28.585C70.2659 28.7252 70.4081 28.7358 71.6595 28.7381C73.0711 28.7406 73.3534 28.7115 74.3751 28.4573C77.4115 27.7021 79.9348 25.4575 81.0165 22.5493C82.0211 19.8482 81.9227 16.5042 80.7661 14.0397C79.2673 10.846 76.3809 8.79925 72.8746 8.44372C69.3792 8.0894 65.5076 9.41378 62.1399 12.116C60.4005 13.5115 59.7412 14.3127 57.0769 18.2682C56.4246 19.2366 55.6577 20.3492 55.3727 20.7407C53.3835 23.4722 51.979 24.3424 49.9332 24.1111C47.7757 23.867 46.2586 22.3387 45.7861 19.9332C45.6619 19.301 45.62 17.95 45.7039 17.2827C45.957 15.2679 46.8837 13.7678 48.3074 13.0681C49.1287 12.6645 49.5119 12.5869 50.6992 12.5839C52.5314 12.5792 52.8139 12.7163 54.6517 14.502C55.3829 15.2126 55.5514 15.3509 55.6528 15.3238C55.7198 15.3058 55.7906 15.2908 55.8099 15.2904C55.8294 15.29 56.4096 14.6218 57.0994 13.8054C58.0992 12.6223 58.3569 12.2849 58.3701 12.1421C58.3857 11.9736 58.3581 11.8627 57.2537 10.8082C55.0066 8.51598 52.5498 8.00722 50.8089 7.97807C50.1903 7.96766 49.573 7.9693 49.4372 7.98168ZM121.262 12.4151C119.993 12.6835 119.116 13.4509 118.819 14.5544C118.702 14.9867 118.702 15.9746 118.818 16.4128C119.099 17.466 119.868 18.1903 121.043 18.508C121.313 18.5812 121.611 18.6044 122.277 18.6044C123.097 18.6044 123.187 18.5939 123.638 18.4463C124.814 18.0616 125.54 17.269 125.743 16.1494C125.886 15.3621 125.771 14.5704 125.418 13.9045C125.057 13.2236 124.132 12.5947 123.226 12.4149C122.71 12.3125 121.747 12.3126 121.262 12.4151ZM71.0011 12.804C69.9752 13.0006 69.2499 13.3763 68.4829 14.1081C67.5328 15.0149 67.0828 16.1077 66.9418 17.8513C66.801 19.5916 67.1368 21.2676 67.8454 22.362C68.4403 23.2809 69.5753 24.0551 70.6993 24.3086C71.3164 24.4477 72.3059 24.4349 72.8941 24.28C74.3737 23.8905 75.5611 22.8379 76.1239 21.4168C76.5509 20.3386 76.7039 18.7585 76.5171 17.3571C76.339 16.0209 75.9521 15.1246 75.2088 14.3257C74.5686 13.6377 73.8919 13.1994 73.0587 12.9332C72.7526 12.8354 72.5188 12.8072 71.9064 12.7941C71.484 12.7851 71.0765 12.7895 71.0011 12.804ZM93.004 12.8052C91.124 12.984 89.7411 13.8131 88.7638 15.3473C88.2168 16.2059 87.9562 17.2432 87.956 18.5614C87.9558 20.2913 88.4382 21.5917 89.4925 22.7039C90.5039 23.7709 91.6752 24.2965 93.196 24.3657C95.293 24.4612 96.981 23.6217 98.0683 21.9425C98.737 20.9097 99.0331 19.6984 98.9696 18.2553C98.9077 16.8503 98.5318 15.7883 97.7516 14.8147C96.7939 13.6194 95.5878 12.9699 94.0568 12.8249C93.4803 12.7704 93.3879 12.7686 93.004 12.8052ZM119.249 28.0689C118.379 28.6258 117.801 29.3664 117.635 30.1379C117.547 30.5493 117.6 31.2492 117.748 31.6343C118.194 32.7934 120.018 33.5903 122.221 33.5891C122.871 33.5887 123.683 33.4848 124.17 33.3397C124.617 33.2068 125.367 32.8037 125.679 32.5286C126.796 31.5459 126.71 29.7414 125.504 28.8797C124.955 28.4869 124.121 28.2834 122.469 28.1387C121.497 28.0535 120.329 27.917 119.906 27.8392C119.69 27.7995 119.647 27.8147 119.249 28.0689Z" fill="#D1D2EA"></path><path fill-rule="evenodd" clip-rule="evenodd" d="M140.792 8.45926C140.702 8.47158 140.406 8.50906 140.134 8.54253C136.562 8.98277 133.426 11.5866 132.268 15.0751C131.527 17.3076 131.525 19.9865 132.263 22.2458C133.193 25.095 135.498 27.3834 138.372 28.3109C139.524 28.6826 140.382 28.8101 141.724 28.8086C143.103 28.807 144.331 28.5881 145.446 28.1451C148.876 26.7819 151.07 23.9244 151.581 20.1528C151.681 19.414 151.665 17.6397 151.551 16.8928C151.217 14.6997 150.244 12.7418 148.747 11.2499C147.298 9.8061 145.538 8.91264 143.454 8.5627C142.961 8.48002 141.155 8.40983 140.792 8.45926ZM140.738 12.892C139.832 13.091 139.046 13.5331 138.351 14.2345C137.386 15.2078 136.962 16.3684 136.888 18.2352C136.785 20.8287 137.498 22.5976 139.079 23.6693C140.779 24.822 143.029 24.7123 144.664 23.3972C145.815 22.4713 146.396 21.1829 146.519 19.2851C146.627 17.6274 146.341 16.1005 145.734 15.0946C145.113 14.0636 143.936 13.1942 142.795 12.9228C142.247 12.7922 141.259 12.7775 140.738 12.892Z" fill="#D1D2EA"></path><path fill-rule="evenodd" clip-rule="evenodd" d="M223.221 28.2619H228.266V0.0581055H223.221V28.2619ZM180.084 4.49607C180.016 4.52346 179.936 4.60977 179.906 4.68781C179.874 4.77165 179.852 5.64707 179.852 6.82511V8.82046H177.44V28.2619H182.484V10.2443H183.776C185.043 10.2443 185.239 10.2211 185.348 10.0581C185.37 10.025 185.388 8.80266 185.388 7.34181C185.388 5.88097 185.37 4.65862 185.348 4.62548C185.231 4.45095 185.059 4.43928 182.638 4.44273C181.302 4.44465 180.153 4.46864 180.084 4.49607ZM196.323 8.18826C195.051 8.38557 194.086 8.89768 193.136 9.87852C192.648 10.3832 192.203 11.0297 191.962 11.5866C191.89 11.7509 191.814 11.8859 191.791 11.8864C191.768 11.8868 191.75 11.1726 191.75 10.2991V8.71093H186.761V28.2619H191.75L191.75 23.3742C191.75 20.5069 191.774 18.1695 191.808 17.7197C191.876 16.8103 192.017 16.0704 192.249 15.4093C192.812 13.8055 193.739 12.8802 194.877 12.7844C196.797 12.6228 197.701 14.5495 196.853 16.9976C196.767 17.2442 196.681 17.5146 196.662 17.5985C196.606 17.8386 196.728 18.1772 196.958 18.4242L197.17 18.6507L199.124 18.6664C201.039 18.6818 201.083 18.6798 201.268 18.5651C201.373 18.5007 201.503 18.3581 201.558 18.2482C201.856 17.652 202.171 16.5734 202.303 15.6929C202.4 15.0531 202.414 13.5411 202.328 12.9657C202.038 11.0137 200.937 9.35814 199.428 8.60343C198.529 8.15376 197.463 8.01126 196.323 8.18826ZM210.94 8.16832C210.232 8.24045 209.194 8.45513 208.574 8.65765C207.837 8.89812 206.5 9.57813 205.948 9.99281C205.279 10.4954 204.467 11.3567 204.257 11.787C203.978 12.3586 203.905 12.7516 203.935 13.5028C203.971 14.3993 204.113 14.7142 204.591 14.9594C204.78 15.0562 204.937 15.0636 206.801 15.0636H208.807L208.941 14.9292C209.051 14.8191 209.076 14.7404 209.076 14.4938C209.076 13.5806 209.369 13.0866 210.179 12.6378C210.776 12.3062 211.074 12.2434 212.036 12.2462C213.049 12.249 213.411 12.3253 214.172 12.6966C214.849 13.0267 215.331 13.4867 215.618 14.0779C215.899 14.6542 215.987 15.0406 216.023 15.844L216.055 16.5423H213.199C211.628 16.5423 210.027 16.5688 209.641 16.6013C207.214 16.8051 205.466 17.4824 204.247 18.6917C203.763 19.1723 203.487 19.5495 203.189 20.141C202.46 21.59 202.456 23.5861 203.18 25.1234C203.453 25.7032 203.777 26.1569 204.249 26.619C205.431 27.7775 206.858 28.3314 209.066 28.4892C211.01 28.628 212.654 28.2966 213.849 27.5245C214.765 26.9328 215.423 26.2956 215.989 25.4514C216.168 25.1856 216.324 25.0008 216.337 25.0406C216.35 25.0804 216.45 25.7291 216.559 26.4821C216.669 27.2351 216.771 27.8944 216.786 27.947C216.812 28.0362 216.963 28.0429 218.948 28.0429H221.083L221.083 21.7586C221.082 15.4834 221.069 14.9717 220.885 14.0534C220.453 11.9037 219.179 10.232 217.193 9.21132C216.2 8.70036 215.294 8.42172 214.054 8.24532C213.33 8.14226 211.612 8.09976 210.94 8.16832ZM156.112 8.86104C156.112 8.88388 157.627 13.2523 159.478 18.5686L162.843 28.2346H169.346L172.732 18.596C174.595 13.2947 176.12 8.92632 176.121 8.88842C176.123 8.83366 175.551 8.82238 173.345 8.83366L170.566 8.84784L169.289 13.01C168.586 15.2991 167.715 18.1455 167.352 19.3353L166.693 21.4985L167.071 22.8676C167.382 23.9927 167.439 24.2565 167.387 24.3477C167.3 24.5006 166.725 25.0308 166.646 25.0308C166.61 25.0308 166.558 24.9754 166.53 24.9076C166.501 24.8398 166.021 23.2441 165.464 21.3616C164.906 19.479 163.835 15.8933 163.084 13.3933L161.718 8.84784L158.915 8.83366C157.373 8.82583 156.112 8.83815 156.112 8.86104ZM210.383 19.8005C209.853 19.8897 209.622 19.9638 209.223 20.1729C207.561 21.0448 207.508 23.2865 209.13 24.1498C209.698 24.4521 210.201 24.5545 211.104 24.552C212.05 24.5493 212.526 24.4459 213.238 24.0889C214.164 23.6251 215.048 22.5314 215.528 21.2579C215.642 20.9552 215.929 19.8839 215.929 19.7597C215.929 19.6852 210.847 19.7225 210.383 19.8005Z" fill="#D1D2EA"></path><path fill-rule="evenodd" clip-rule="evenodd" d="M235.258 2.79874C235.258 2.42189 235.563 2.1164 235.94 2.1164H237.377C237.839 2.1164 238.206 2.23867 238.478 2.48322C238.763 2.72777 238.906 3.06063 238.906 3.48179C238.906 4.12034 238.6 4.54151 237.989 4.7453L238.752 5.91866C238.898 6.14373 238.74 6.4419 238.471 6.44585L237.901 6.45424C237.779 6.45604 237.665 6.39247 237.602 6.28754L236.745 4.84719H236.481V6.28656C236.481 6.38077 236.404 6.45714 236.31 6.45714H235.428C235.334 6.45714 235.258 6.38077 235.258 6.28656V2.79874ZM236.46 3.97089H237.214C237.336 3.97089 237.438 3.93693 237.52 3.869C237.615 3.80107 237.663 3.69238 237.663 3.54293C237.663 3.40707 237.615 3.31197 237.52 3.25762C237.438 3.18969 237.336 3.15573 237.214 3.15573H236.46V3.97089Z" fill="#D1D2EA"></path><path fill-rule="evenodd" clip-rule="evenodd" d="M237.01 8.59695C236.182 8.59695 235.441 8.41354 234.789 8.04671C234.151 7.67989 233.648 7.1772 233.281 6.53866C232.914 5.88653 232.731 5.15288 232.731 4.33772C232.731 3.50897 232.914 2.77532 233.281 2.13677C233.648 1.48464 234.151 0.975164 234.789 0.60834C235.441 0.241517 236.182 0.0581055 237.01 0.0581055C237.839 0.0581055 238.573 0.241517 239.211 0.60834C239.85 0.975164 240.346 1.48464 240.699 2.13677C241.066 2.77532 241.249 3.50897 241.249 4.33772C241.249 5.15288 241.066 5.88653 240.699 6.53866C240.346 7.1772 239.85 7.67989 239.211 8.04671C238.573 8.41354 237.839 8.59695 237.01 8.59695ZM237.01 7.65951C237.989 7.65951 238.77 7.35382 239.354 6.74245C239.952 6.11749 240.251 5.31591 240.251 4.33772C240.251 3.34593 239.952 2.54436 239.354 1.93298C238.77 1.32161 237.989 1.01592 237.01 1.01592C236.019 1.01592 235.224 1.32161 234.626 1.93298C234.042 2.54436 233.75 3.34593 233.75 4.33772C233.75 5.31591 234.042 6.11749 234.626 6.74245C235.224 7.35382 236.019 7.65951 237.01 7.65951Z" fill="#D1D2EA"></path><path d="M31.1109 8.26827C32.9778 8.54801 33.7969 10.7815 32.5535 12.202L19.2542 27.3941C17.7219 29.1444 14.8463 27.8931 15.0827 25.5789L15.7125 19.4135C15.9313 17.2712 15.1525 15.1474 13.6005 13.6545L9.134 9.35813C7.45746 7.74544 8.84229 4.93165 11.1429 5.27636L31.1109 8.26827Z" fill="#D1D2EA"></path><path d="M8.48266 11.1348C8.79974 11.0724 9.10736 11.2789 9.16975 11.596L9.74565 14.5227C9.80804 14.8398 9.60158 15.1474 9.28451 15.2098L6.35777 15.7857C6.04069 15.8481 5.73308 15.6416 5.67069 15.3246L5.09478 12.3978C5.03239 12.0808 5.23885 11.7731 5.55592 11.7108L8.48266 11.1348Z" fill="#D1D2EA"></path><path d="M4.33896 24.4235C4.56303 24.5128 4.67228 24.7669 4.58297 24.991L3.75858 27.0593C3.66927 27.2834 3.41521 27.3926 3.19114 27.3033L1.12282 26.4789C0.898745 26.3896 0.789502 26.1356 0.878813 25.9115L1.7032 23.8432C1.79251 23.6191 2.04657 23.5098 2.27064 23.5991L4.33896 24.4235Z" fill="#D1D2EA"></path><path d="M13.7051 19.9248C13.8287 19.5751 13.6454 19.1913 13.2956 19.0677L10.067 17.9266C9.7172 17.803 9.33343 17.9863 9.20981 18.3361L8.06873 21.5647C7.94511 21.9145 8.12845 22.2982 8.47822 22.4219L11.7068 23.5629C12.0566 23.6866 12.4404 23.5032 12.564 23.1534L13.7051 19.9248Z" fill="#D1D2EA"></path><path d="M5.8812 18.6829C6.00025 18.3843 5.85462 18.0456 5.55595 17.9266L2.79905 16.8277C2.50037 16.7087 2.16174 16.8543 2.04269 17.153L0.943849 19.9099C0.824804 20.2086 0.970426 20.5472 1.2691 20.6663L4.02601 21.7651C4.32468 21.8841 4.66331 21.7385 4.78236 21.4399L5.8812 18.6829Z" fill="#D1D2EA"></path></svg>