<svg xmlns="http://www.w3.org/2000/svg" width="95" height="132" viewBox="0 0 95 132" fill="none"><path d="M0.741211 5.8921C0.741211 2.82918 3.2242 0.346191 6.28712 0.346191H89.4541C92.517 0.346191 95 2.82918 95 5.8921V124.723C95 128.12 91.9746 130.718 88.6171 130.206L5.45013 117.509C2.7418 117.095 0.741211 114.766 0.741211 112.026V5.8921Z" fill="url(#paint0_linear_2441_2706)"></path><path d="M0.741211 5.8921C0.741211 2.82918 3.2242 0.346191 6.28712 0.346191H89.4541C92.517 0.346191 95 2.82918 95 5.8921V124.723C95 128.12 91.9746 130.718 88.6171 130.206L5.45013 117.509C2.7418 117.095 0.741211 114.766 0.741211 112.026V5.8921Z" fill="url(#paint1_radial_2441_2706)"></path><path d="M0.741211 5.8921C0.741211 2.82918 3.2242 0.346191 6.28712 0.346191H89.4541C92.517 0.346191 95 2.82918 95 5.8921V124.723C95 128.12 91.9746 130.718 88.6171 130.206L5.45013 117.509C2.7418 117.095 0.741211 114.766 0.741211 112.026V5.8921Z" fill="url(#paint2_radial_2441_2706)"></path><path d="M29.6531 59.5262C38.1491 59.5262 46.9811 64.1822 46.9811 77.0462C46.9811 89.8622 38.1491 94.5182 29.6531 94.5182C21.2051 94.5182 12.3731 89.8622 12.3731 77.0462C12.3731 64.1822 21.2051 59.5262 29.6531 59.5262ZM29.6531 88.2302C35.5571 88.2302 38.1491 83.6702 38.1491 77.0462C38.1491 70.4222 35.5571 65.8622 29.6531 65.8622C23.7491 65.8622 21.1571 70.4222 21.1571 77.0462C21.1571 83.6702 23.7491 88.2302 29.6531 88.2302ZM76.0924 75.8462C80.0284 76.6142 83.3884 78.5822 83.3884 83.5742C83.3884 92.2142 75.0364 94.5182 66.3964 94.5182C57.5644 94.5182 49.7404 91.6862 49.4044 83.7182H58.1404C58.5724 86.8382 61.4044 88.1822 66.7324 88.1822C71.9644 88.1822 74.6044 86.6462 74.6044 83.2862C74.6044 80.1182 72.0604 79.2542 68.5564 79.2542H61.5484V73.3022H68.5564C71.6764 73.3022 73.3084 71.9582 73.3084 69.7022C73.3084 67.3022 71.5324 65.5262 66.3004 65.5262C61.8364 65.5262 59.7244 66.4862 59.1484 69.4142H50.4124C50.8444 62.3102 57.9004 59.5262 66.3964 59.5262C74.1724 59.5262 81.7564 61.2542 81.7564 68.8382C81.7564 72.6302 79.2124 74.6942 76.0924 75.8462Z" fill="white"></path><defs><linearGradient id="paint0_linear_2441_2706" x1="-166.719" y1="28.1553" x2="131.423" y2="89.3295" gradientUnits="userSpaceOnUse"><stop stop-color="#7D0404"></stop><stop offset="1" stop-color="#FF0000"></stop></linearGradient><radialGradient id="paint1_radial_2441_2706" cx="0" cy="0" r="1" gradientUnits="userSpaceOnUse" gradientTransform="translate(121.062 11.8914) rotate(119.138) scale(142.147 331.685)"><stop stop-color="#EA196D"></stop><stop offset="1" stop-color="#FB0A0A" stop-opacity="0"></stop></radialGradient><radialGradient id="paint2_radial_2441_2706" cx="0" cy="0" r="1" gradientUnits="userSpaceOnUse" gradientTransform="translate(28.6433 -14.5131) rotate(48.7605) scale(196.899 918.851)"><stop stop-color="#EA0303" stop-opacity="0"></stop><stop offset="1" stop-color="#EA0303"></stop></radialGradient></defs></svg>