<svg xmlns="http://www.w3.org/2000/svg" width="95" height="132" viewBox="0 0 95 132" fill="none"><path d="M0.741211 5.8921C0.741211 2.82918 3.2242 0.346191 6.28712 0.346191H89.4541C92.517 0.346191 95 2.82918 95 5.8921V124.723C95 128.12 91.9746 130.718 88.6171 130.206L5.45013 117.509C2.7418 117.095 0.741211 114.766 0.741211 112.026V5.8921Z" fill="url(#paint0_linear_2441_2718)"></path><path d="M0.741211 5.8921C0.741211 2.82918 3.2242 0.346191 6.28712 0.346191H89.4541C92.517 0.346191 95 2.82918 95 5.8921V124.723C95 128.12 91.9746 130.718 88.6171 130.206L5.45013 117.509C2.7418 117.095 0.741211 114.766 0.741211 112.026V5.8921Z" fill="url(#paint1_radial_2441_2718)"></path><path d="M0.741211 5.8921C0.741211 2.82918 3.2242 0.346191 6.28712 0.346191H89.4541C92.517 0.346191 95 2.82918 95 5.8921V124.723C95 128.12 91.9746 130.718 88.6171 130.206L5.45013 117.509C2.7418 117.095 0.741211 114.766 0.741211 112.026V5.8921Z" fill="url(#paint2_radial_2441_2718)"></path><path d="M28.5281 59.5262C37.0241 59.5262 45.8561 64.1822 45.8561 77.0462C45.8561 89.8622 37.0241 94.5182 28.5281 94.5182C20.0801 94.5182 11.2481 89.8622 11.2481 77.0462C11.2481 64.1822 20.0801 59.5262 28.5281 59.5262ZM28.5281 88.2302C34.4321 88.2302 37.0241 83.6702 37.0241 77.0462C37.0241 70.4222 34.4321 65.8622 28.5281 65.8622C22.6241 65.8622 20.0321 70.4222 20.0321 77.0462C20.0321 83.6702 22.6241 88.2302 28.5281 88.2302ZM84.5081 81.6062V87.5102H78.5561V93.8462H69.9161V87.5102H48.7481V81.1262L67.1321 60.2462H78.5561V81.6062H84.5081ZM57.2921 81.6062H69.9161V66.9662L57.2921 81.6062Z" fill="white"></path><defs><linearGradient id="paint0_linear_2441_2718" x1="-166.719" y1="28.1553" x2="131.423" y2="89.3295" gradientUnits="userSpaceOnUse"><stop stop-color="#7D0404"></stop><stop offset="1" stop-color="#FF0000"></stop></linearGradient><radialGradient id="paint1_radial_2441_2718" cx="0" cy="0" r="1" gradientUnits="userSpaceOnUse" gradientTransform="translate(121.062 11.8914) rotate(119.138) scale(142.147 331.685)"><stop stop-color="#EA196D"></stop><stop offset="1" stop-color="#FB0A0A" stop-opacity="0"></stop></radialGradient><radialGradient id="paint2_radial_2441_2718" cx="0" cy="0" r="1" gradientUnits="userSpaceOnUse" gradientTransform="translate(28.6433 -14.5131) rotate(48.7605) scale(196.899 918.851)"><stop stop-color="#EA0303" stop-opacity="0"></stop><stop offset="1" stop-color="#EA0303"></stop></radialGradient></defs></svg>