<svg xmlns="http://www.w3.org/2000/svg" width="95" height="132" viewBox="0 0 95 132" fill="none"><path d="M0.741211 5.89161C0.741211 2.82869 3.2242 0.345703 6.28712 0.345703H89.4541C92.517 0.345703 95 2.82869 95 5.89161V124.723C95 128.119 91.9746 130.718 88.6171 130.205L5.45013 117.508C2.7418 117.095 0.741211 114.765 0.741211 112.026V5.89161Z" fill="url(#paint0_linear_2441_2749)"></path><path d="M0.741211 5.89161C0.741211 2.82869 3.2242 0.345703 6.28712 0.345703H89.4541C92.517 0.345703 95 2.82869 95 5.89161V124.723C95 128.119 91.9746 130.718 88.6171 130.205L5.45013 117.508C2.7418 117.095 0.741211 114.765 0.741211 112.026V5.89161Z" fill="url(#paint1_radial_2441_2749)"></path><path d="M0.741211 5.89161C0.741211 2.82869 3.2242 0.345703 6.28712 0.345703H89.4541C92.517 0.345703 95 2.82869 95 5.89161V124.723C95 128.119 91.9746 130.718 88.6171 130.205L5.45013 117.508C2.7418 117.095 0.741211 114.765 0.741211 112.026V5.89161Z" fill="url(#paint2_radial_2441_2749)"></path><path d="M29.0672 59.5257C37.5632 59.5257 46.3952 64.1817 46.3952 77.0457C46.3952 89.8617 37.5632 94.5177 29.0672 94.5177C20.6192 94.5177 11.7872 89.8617 11.7872 77.0457C11.7872 64.1817 20.6192 59.5257 29.0672 59.5257ZM29.0672 88.2297C34.9712 88.2297 37.5632 83.6697 37.5632 77.0457C37.5632 70.4217 34.9712 65.8617 29.0672 65.8617C23.1632 65.8617 20.5712 70.4217 20.5712 77.0457C20.5712 83.6697 23.1632 88.2297 29.0672 88.2297ZM68.4392 71.6217C76.9352 71.6217 83.9432 74.5017 83.9432 82.5177C83.9432 91.6857 76.0232 94.5177 67.5272 94.5177C57.4472 94.5177 49.7672 90.1977 49.7672 77.0457C49.7672 64.1817 57.8312 59.5257 67.5272 59.5257C73.9592 59.5257 82.4072 61.7817 83.2712 69.1737H74.2472C73.5752 66.9177 71.0792 65.8617 67.5272 65.8617C61.0952 65.8617 58.9832 69.5577 58.6472 75.1737C60.7112 72.9177 64.4072 71.6217 68.4392 71.6217ZM67.5272 88.2297C72.2312 88.2297 75.1112 86.6937 75.1112 82.5177C75.1112 78.2937 71.7032 76.9977 68.0072 76.9977C62.5832 76.9977 59.6072 78.4857 59.6072 82.5177C59.6072 86.8377 62.5832 88.2297 67.5272 88.2297Z" fill="white"></path><defs><linearGradient id="paint0_linear_2441_2749" x1="-166.719" y1="28.1549" x2="131.423" y2="89.329" gradientUnits="userSpaceOnUse"><stop stop-color="#7D0404"></stop><stop offset="1" stop-color="#FF0000"></stop></linearGradient><radialGradient id="paint1_radial_2441_2749" cx="0" cy="0" r="1" gradientUnits="userSpaceOnUse" gradientTransform="translate(121.062 11.8909) rotate(119.138) scale(142.147 331.685)"><stop stop-color="#EA196D"></stop><stop offset="1" stop-color="#FB0A0A" stop-opacity="0"></stop></radialGradient><radialGradient id="paint2_radial_2441_2749" cx="0" cy="0" r="1" gradientUnits="userSpaceOnUse" gradientTransform="translate(28.6433 -14.5136) rotate(48.7605) scale(196.899 918.851)"><stop stop-color="#EA0303" stop-opacity="0"></stop><stop offset="1" stop-color="#EA0303"></stop></radialGradient></defs></svg>