<svg xmlns="http://www.w3.org/2000/svg" width="95" height="132" viewBox="0 0 95 132" fill="none"><path d="M0.741211 5.8921C0.741211 2.82918 3.2242 0.346191 6.28712 0.346191H89.4541C92.517 0.346191 95 2.82918 95 5.8921V124.723C95 128.12 91.9746 130.718 88.6171 130.206L5.45013 117.509C2.7418 117.095 0.741211 114.766 0.741211 112.026V5.8921Z" fill="url(#paint0_linear_2441_2675)"></path><path d="M0.741211 5.8921C0.741211 2.82918 3.2242 0.346191 6.28712 0.346191H89.4541C92.517 0.346191 95 2.82918 95 5.8921V124.723C95 128.12 91.9746 130.718 88.6171 130.206L5.45013 117.509C2.7418 117.095 0.741211 114.766 0.741211 112.026V5.8921Z" fill="url(#paint1_radial_2441_2675)"></path><path d="M0.741211 5.8921C0.741211 2.82918 3.2242 0.346191 6.28712 0.346191H89.4541C92.517 0.346191 95 2.82918 95 5.8921V124.723C95 128.12 91.9746 130.718 88.6171 130.206L5.45013 117.509C2.7418 117.095 0.741211 114.766 0.741211 112.026V5.8921Z" fill="url(#paint2_radial_2441_2675)"></path><path d="M36.825 58.5262C45.321 58.5262 54.153 63.1822 54.153 76.0462C54.153 88.8622 45.321 93.5182 36.825 93.5182C28.377 93.5182 19.545 88.8622 19.545 76.0462C19.545 63.1822 28.377 58.5262 36.825 58.5262ZM36.825 87.2302C42.729 87.2302 45.321 82.6702 45.321 76.0462C45.321 69.4222 42.729 64.8622 36.825 64.8622C30.921 64.8622 28.329 69.4222 28.329 76.0462C28.329 82.6702 30.921 87.2302 36.825 87.2302ZM68.4578 59.2462H74.7458V92.8462H66.1057V67.1182L57.5137 72.4462V66.0622L68.4578 59.2462Z" fill="white"></path><defs><linearGradient id="paint0_linear_2441_2675" x1="-166.719" y1="28.1553" x2="131.423" y2="89.3295" gradientUnits="userSpaceOnUse"><stop stop-color="#7D0404"></stop><stop offset="1" stop-color="#FF0000"></stop></linearGradient><radialGradient id="paint1_radial_2441_2675" cx="0" cy="0" r="1" gradientUnits="userSpaceOnUse" gradientTransform="translate(121.062 11.8914) rotate(119.138) scale(142.147 331.685)"><stop stop-color="#EA196D"></stop><stop offset="1" stop-color="#FB0A0A" stop-opacity="0"></stop></radialGradient><radialGradient id="paint2_radial_2441_2675" cx="0" cy="0" r="1" gradientUnits="userSpaceOnUse" gradientTransform="translate(28.6433 -14.5131) rotate(48.7605) scale(196.899 918.851)"><stop stop-color="#EA0303" stop-opacity="0"></stop><stop offset="1" stop-color="#EA0303"></stop></radialGradient></defs></svg>