<svg xmlns="http://www.w3.org/2000/svg" width="95" height="132" viewBox="0 0 95 132" fill="none"><path d="M0.741211 5.89161C0.741211 2.82869 3.2242 0.345703 6.28712 0.345703H89.4541C92.517 0.345703 95 2.82869 95 5.89161V124.723C95 128.119 91.9746 130.718 88.6171 130.205L5.45013 117.508C2.7418 117.095 0.741211 114.765 0.741211 112.026V5.89161Z" fill="url(#paint0_linear_2441_2737)"></path><path d="M0.741211 5.89161C0.741211 2.82869 3.2242 0.345703 6.28712 0.345703H89.4541C92.517 0.345703 95 2.82869 95 5.89161V124.723C95 128.119 91.9746 130.718 88.6171 130.205L5.45013 117.508C2.7418 117.095 0.741211 114.765 0.741211 112.026V5.89161Z" fill="url(#paint1_radial_2441_2737)"></path><path d="M0.741211 5.89161C0.741211 2.82869 3.2242 0.345703 6.28712 0.345703H89.4541C92.517 0.345703 95 2.82869 95 5.89161V124.723C95 128.119 91.9746 130.718 88.6171 130.205L5.45013 117.508C2.7418 117.095 0.741211 114.765 0.741211 112.026V5.89161Z" fill="url(#paint2_radial_2441_2737)"></path><path d="M30.075 59.5257C38.571 59.5257 47.403 64.1817 47.403 77.0457C47.403 89.8617 38.571 94.5177 30.075 94.5177C21.627 94.5177 12.795 89.8617 12.795 77.0457C12.795 64.1817 21.627 59.5257 30.075 59.5257ZM30.075 88.2297C35.979 88.2297 38.571 83.6697 38.571 77.0457C38.571 70.4217 35.979 65.8617 30.075 65.8617C24.171 65.8617 21.579 70.4217 21.579 77.0457C21.579 83.6697 24.171 88.2297 30.075 88.2297ZM68.4023 71.0937C75.6503 71.0937 82.9463 73.2057 82.9463 82.2297C82.9463 91.3977 74.8823 94.5177 66.2422 94.5177C57.7462 94.5177 50.6422 91.1577 49.8262 84.1497H58.6103C59.4262 86.8857 62.2582 88.1817 66.5782 88.1817C71.8103 88.1817 74.1622 85.8777 74.1622 82.2777C74.1622 78.5337 71.6183 76.5177 66.5782 76.5177C63.2662 76.5177 60.9623 77.3337 58.8503 79.0617H51.2662L54.0502 60.2457H80.5942V67.0617H59.9543L59.0423 73.3497C61.6343 71.9097 64.8983 71.0937 68.4023 71.0937Z" fill="white"></path><defs><linearGradient id="paint0_linear_2441_2737" x1="-166.719" y1="28.1549" x2="131.423" y2="89.329" gradientUnits="userSpaceOnUse"><stop stop-color="#7D0404"></stop><stop offset="1" stop-color="#FF0000"></stop></linearGradient><radialGradient id="paint1_radial_2441_2737" cx="0" cy="0" r="1" gradientUnits="userSpaceOnUse" gradientTransform="translate(121.062 11.8909) rotate(119.138) scale(142.147 331.685)"><stop stop-color="#EA196D"></stop><stop offset="1" stop-color="#FB0A0A" stop-opacity="0"></stop></radialGradient><radialGradient id="paint2_radial_2441_2737" cx="0" cy="0" r="1" gradientUnits="userSpaceOnUse" gradientTransform="translate(28.6433 -14.5136) rotate(48.7605) scale(196.899 918.851)"><stop stop-color="#EA0303" stop-opacity="0"></stop><stop offset="1" stop-color="#EA0303"></stop></radialGradient></defs></svg>