<svg xmlns="http://www.w3.org/2000/svg" width="95" height="132" viewBox="0 0 95 132" fill="none"><path d="M0.741211 5.8921C0.741211 2.82918 3.2242 0.346191 6.28712 0.346191H89.4541C92.517 0.346191 95 2.82918 95 5.8921V124.723C95 128.12 91.9746 130.718 88.6171 130.206L5.45013 117.509C2.7418 117.095 0.741211 114.766 0.741211 112.026V5.8921Z" fill="url(#paint0_linear_2441_2694)"></path><path d="M0.741211 5.8921C0.741211 2.82918 3.2242 0.346191 6.28712 0.346191H89.4541C92.517 0.346191 95 2.82918 95 5.8921V124.723C95 128.12 91.9746 130.718 88.6171 130.206L5.45013 117.509C2.7418 117.095 0.741211 114.766 0.741211 112.026V5.8921Z" fill="url(#paint1_radial_2441_2694)"></path><path d="M0.741211 5.8921C0.741211 2.82918 3.2242 0.346191 6.28712 0.346191H89.4541C92.517 0.346191 95 2.82918 95 5.8921V124.723C95 128.12 91.9746 130.718 88.6171 130.206L5.45013 117.509C2.7418 117.095 0.741211 114.766 0.741211 112.026V5.8921Z" fill="url(#paint2_radial_2441_2694)"></path><path d="M30.3563 59.5262C38.8523 59.5262 47.6843 64.1822 47.6843 77.0462C47.6843 89.8622 38.8523 94.5182 30.3563 94.5182C21.9083 94.5182 13.0762 89.8622 13.0762 77.0462C13.0762 64.1822 21.9083 59.5262 30.3563 59.5262ZM30.3563 88.2302C36.2603 88.2302 38.8523 83.6702 38.8523 77.0462C38.8523 70.4222 36.2603 65.8622 30.3563 65.8622C24.4523 65.8622 21.8603 70.4222 21.8603 77.0462C21.8603 83.6702 24.4523 88.2302 30.3563 88.2302ZM59.0111 87.0302H82.1951V93.8462H49.1231C50.2271 73.1582 73.2191 79.4942 73.2191 70.1822C73.2191 67.6382 71.5391 65.5262 66.4991 65.5262C61.7471 65.5262 59.7791 67.3022 59.2991 70.8062H50.5631C51.3311 62.7422 57.7631 59.5262 66.6431 59.5262C74.3711 59.5262 81.8111 61.9262 81.8111 70.2302C81.8111 83.4782 62.9951 80.3102 59.0111 87.0302Z" fill="white"></path><defs><linearGradient id="paint0_linear_2441_2694" x1="-166.719" y1="28.1553" x2="131.423" y2="89.3295" gradientUnits="userSpaceOnUse"><stop stop-color="#7D0404"></stop><stop offset="1" stop-color="#FF0000"></stop></linearGradient><radialGradient id="paint1_radial_2441_2694" cx="0" cy="0" r="1" gradientUnits="userSpaceOnUse" gradientTransform="translate(121.062 11.8914) rotate(119.138) scale(142.147 331.685)"><stop stop-color="#EA196D"></stop><stop offset="1" stop-color="#FB0A0A" stop-opacity="0"></stop></radialGradient><radialGradient id="paint2_radial_2441_2694" cx="0" cy="0" r="1" gradientUnits="userSpaceOnUse" gradientTransform="translate(28.6433 -14.5131) rotate(48.7605) scale(196.899 918.851)"><stop stop-color="#EA0303" stop-opacity="0"></stop><stop offset="1" stop-color="#EA0303"></stop></radialGradient></defs></svg>