<svg xmlns="http://www.w3.org/2000/svg" width="95" height="132" viewBox="0 0 95 132" fill="none"><path d="M0.741211 5.89161C0.741211 2.82869 3.2242 0.345703 6.28712 0.345703H89.4541C92.517 0.345703 95 2.82869 95 5.89161V124.723C95 128.119 91.9746 130.718 88.6171 130.205L5.45013 117.508C2.7418 117.095 0.741211 114.765 0.741211 112.026V5.89161Z" fill="url(#paint0_linear_2441_2761)"></path><path d="M0.741211 5.89161C0.741211 2.82869 3.2242 0.345703 6.28712 0.345703H89.4541C92.517 0.345703 95 2.82869 95 5.89161V124.723C95 128.119 91.9746 130.718 88.6171 130.205L5.45013 117.508C2.7418 117.095 0.741211 114.765 0.741211 112.026V5.89161Z" fill="url(#paint1_radial_2441_2761)"></path><path d="M0.741211 5.89161C0.741211 2.82869 3.2242 0.345703 6.28712 0.345703H89.4541C92.517 0.345703 95 2.82869 95 5.89161V124.723C95 128.119 91.9746 130.718 88.6171 130.205L5.45013 117.508C2.7418 117.095 0.741211 114.765 0.741211 112.026V5.89161Z" fill="url(#paint2_radial_2441_2761)"></path><path d="M30.8016 59.5257C39.2976 59.5257 48.1296 64.1817 48.1296 77.0457C48.1296 89.8617 39.2976 94.5177 30.8016 94.5177C22.3536 94.5177 13.5216 89.8617 13.5216 77.0457C13.5216 64.1817 22.3536 59.5257 30.8016 59.5257ZM30.8016 88.2297C36.7056 88.2297 39.2976 83.6697 39.2976 77.0457C39.2976 70.4217 36.7056 65.8617 30.8016 65.8617C24.8976 65.8617 22.3056 70.4217 22.3056 77.0457C22.3056 83.6697 24.8976 88.2297 30.8016 88.2297ZM49.5684 60.2457H82.2084V67.0617C77.5524 71.0457 67.4244 77.5737 65.2644 93.8457H55.6164C56.8164 77.9097 71.1204 69.1257 73.9044 67.0617H49.5684V60.2457Z" fill="white"></path><defs><linearGradient id="paint0_linear_2441_2761" x1="-166.719" y1="28.1549" x2="131.423" y2="89.329" gradientUnits="userSpaceOnUse"><stop stop-color="#7D0404"></stop><stop offset="1" stop-color="#FF0000"></stop></linearGradient><radialGradient id="paint1_radial_2441_2761" cx="0" cy="0" r="1" gradientUnits="userSpaceOnUse" gradientTransform="translate(121.062 11.8909) rotate(119.138) scale(142.147 331.685)"><stop stop-color="#EA196D"></stop><stop offset="1" stop-color="#FB0A0A" stop-opacity="0"></stop></radialGradient><radialGradient id="paint2_radial_2441_2761" cx="0" cy="0" r="1" gradientUnits="userSpaceOnUse" gradientTransform="translate(28.6433 -14.5136) rotate(48.7605) scale(196.899 918.851)"><stop stop-color="#EA0303" stop-opacity="0"></stop><stop offset="1" stop-color="#EA0303"></stop></radialGradient></defs></svg>