<?xml version="1.0" encoding="UTF-8"?>
<svg version="1.1" viewBox="0 0 2048 2048" width="512" height="512" xmlns="http://www.w3.org/2000/svg">
<path transform="translate(1766,1176)" d="m0 0h282v872h-596v-870l1-1z" fill="#FDE14C"/>
<path transform="translate(727,1467)" d="m0 0h595l1 1v580h-597l-1-228v-65l1-287z" fill="#FDE14B"/>
<path transform="translate(1647)" d="m0 0 5 1 248 248 2 3-1 4-8 7-73 73-1 2-5-2-102-102h-2v27l-2 56-2 30-4 37-5 34-6 35-8 38-10 39-12 40-16 47-11 28-15 35-16 34-10 20-12 22-14 25-13 21-14 22-13 19-12 17-8 11-9 12-11 14-13 16-9 11-12 14-11 12-7 8-14 15-40 40-8 7-14 13-11 9-11 10-14 11-12 10-13 10-19 14-18 13-15 10-23 15-23 14-19 11-18 10-23 12-16 8-29 14-40 17-30 11-49 16-35 10-36 9-38 8-47 8-50 6-39 3-17 1-65 1h-502l-2-5v-114l1-1 543-1 41-2 45-4 37-5 49-9 42-10 41-12 47-16 28-11 33-15 15-7 26-13 22-12 26-15 19-12 23-15 20-14 19-14 18-14 16-13 14-12 10-9 8-7 13-12 12-12 8-7 12-13 10-10 7-8 9-10 7-8 12-14 7-9 8-10 10-13 14-19 13-19 10-15 12-19 12-20 14-25 10-19 12-24 14-31 12-30 11-30 12-37 12-44 9-41 7-40 5-38 3-36 2-22v-64l-105 105-5-3-81-81 1-4 7-7h2l2-4h2l2-4 232-232z" fill="#00D783"/>
<path transform="translate(296,1757)" d="m0 0h299l1 1v290h-596v-290z" fill="#FEE14B"/>
<path transform="translate(1021,1103)" d="m0 0h2v128l2 1-49 16-35 10-36 9-38 8-47 8-50 6-39 3-17 1-65 1h-502l-2-5v-114l1-1 543-1 41-2 45-4 37-5 49-9 42-10 41-12 47-16 28-11z" fill="#C2E964"/>
<path transform="translate(2021,1466)" d="m0 0h14l12 1 1 1v288h-297l-1-57v-191l1-41h238z" fill="#FEB146"/>
<path transform="translate(1025,1756)" d="m0 0h23l106 1 63 1 66-1 31 1 3 3 2 23 1 17v36l1 203 1 2v6h-298v-282z" fill="#FEB146"/>
</svg>
