<svg xmlns="http://www.w3.org/2000/svg" width="116" height="68" viewBox="0 0 116 68" fill="none"><path d="M35.3018 25.7979L55.9659 33.1963L51.0975 25.7041L35.3018 25.7979Z" fill="#AA8765"></path><path d="M55.9658 10.751L60.8278 25.7146H76.5615L63.8327 34.9627L68.6946 49.9263L55.9658 40.6782L43.237 49.9263L48.099 34.9627L35.3701 25.7146H51.1038L55.9658 10.751Z" fill="#C89D72"></path><path d="M55.837 33.1802L55.9646 10.7588L60.8641 25.7039L55.837 33.1802Z" fill="#7A461E" fill-opacity="0.5"></path><path d="M76.4881 25.7979L55.824 33.1963L60.8318 25.6729L76.4881 25.7979Z" fill="#F9DEC3"></path><path d="M63.8318 34.9854L55.8396 33.1807L76.6131 25.7354L63.8318 34.9854Z" fill="#5E3F25"></path><path d="M63.8006 34.9854L55.8631 33.1729L68.6756 49.8916L63.8006 34.9854Z" fill="#A17248"></path><path d="M55.9256 40.6416L55.8553 33.1494L68.6756 49.8916L55.9256 40.6416Z" fill="#644427"></path><path d="M55.8475 33.1411L55.9529 10.7661L51.0975 25.7661L55.8475 33.1411Z" fill="#DBB99F" fill-opacity="0.5"></path><path d="M47.958 34.9849L55.9502 33.1802L35.1768 25.7349L47.958 34.9849Z" fill="#372A1D"></path><path d="M47.9893 34.9849L55.9268 33.1724L43.2055 49.9804L47.9893 34.9849Z" fill="#241A11"></path><path d="M55.9346 40.8306V33.1489L43.2055 49.9804L55.9346 40.8306Z" fill="#100A06"></path><path d="M55.6262 22.0118L56.0111 10.9022L56.0911 14.1295L55.9769 19.4137L56.0621 21.347L56.0577 22.4383L55.9557 24.6827L56.1719 24.9018L55.8247 26.4125L55.9458 27.1535L55.9359 29.5931L55.8051 31.2762L55.9237 32.6485L58.0774 29.2276L60.1049 26.344L60.5739 25.4027L60.8517 25.7312L59.6967 27.6055L58.7606 29.012L58.759 29.4174L57.2315 31.3522L56.2018 32.899L57.4132 32.4427L58.3147 31.9098L59.5254 31.6263L60.4569 31.3651L61.4513 30.8936L68.4697 28.6146L69.8053 28.1211L72.5692 27.2281L73.3774 26.7637L75.7689 25.9315L76.3585 25.8403L76.0475 26.0573L73.5319 26.9202L72.8788 27.354L71.2331 27.8463L64.9283 30.0497L62.9406 30.7437L61.6671 31.2062L60.455 31.8327L58.7475 32.2779L56.3247 33.1801L57.7196 33.3728L59.0208 33.721L60.6318 34.164L63.0177 34.7036L63.9476 34.832L63.7295 35.0806L63.1096 34.9846L62.3033 34.9813L61.776 34.9792L60.8157 34.6947L59.5148 34.2842C59.0807 34.2409 58.1817 34.1541 58.0576 34.1536C57.9336 34.1531 57.4492 33.777 57.2225 33.5891L56.0138 33.366L59.5 37.9475L59.902 38.2609L60.6108 39.3862L62.9864 42.4824L67.2122 48.2673L68.262 49.4251L68.477 49.956L67.9512 49.5797L66.4398 47.5159L65.5761 46.3588L63.2629 43.1538L60.9173 40.276L59.6532 38.4314L59.0035 38.0235L58.0481 36.5231L55.9199 33.5838L55.9172 34.2697L56.0034 35.9537L56.1866 36.6715L55.9969 37.5749L55.9926 38.6505L55.894 40.0376L56.1696 40.8961L55.8915 40.6611L55.7665 40.8944L55.5559 39.5062L55.7781 38.0105L55.4778 35.5463L55.7959 33.5833L55.0325 34.4532L54.6424 35.0441L51.9608 38.6343L50.9947 39.7996L50.246 40.8723L49.8098 41.3694L49.093 42.2395L48.9051 42.6752L48.1263 43.545L47.7827 44.136L46.9098 45.2549L45.6007 46.8709L44.1976 48.736L43.2004 49.9167L43.7007 48.8899L44.885 47.4604L46.3826 45.2528L47.3796 44.1344L47.7851 43.5437L48.6578 42.4871L48.9085 41.8334L49.8112 41.0264L50.6845 39.7984L51.1721 39.0521L54.2719 35.292L54.4587 34.4509L55.0343 34.0168L55.5805 33.3642L54.6483 33.5787L53.4686 33.8858L52.338 34.1306L50.085 34.6204L47.8808 35.1728L47.8818 34.9234L48.6584 34.6147L49.9617 34.4329L55.5813 33.1772L54.6511 32.8928L53.0099 32.2549L51.2017 31.6942L49.9751 31.1047L44.7714 29.4235L43.9666 29.0462L43.0993 28.7621L42.4174 28.6658L42.0776 28.3215L40.5606 27.6606L39.9403 27.6581L39.5693 27.3761L37.649 26.7136L35.8221 25.9892L35.3271 25.6754L35.5442 25.6763L36.473 26.0853L37.2477 26.2443L37.7429 26.4957L50.6264 31.1073L52.3473 31.8001L54.9152 32.7614L55.3802 32.8256L55.0413 32.263L54.7784 32.0905L54.6563 31.6067L54.3793 31.06L53.9169 30.3644L53.6234 30.0749L53.4854 29.7002L51.9101 27.1373L51.6171 26.7152L51.3086 26.3086L51.2245 26.0277L50.9543 25.7226L51.0861 25.7231L51.1173 25.6921L52.3643 27.576L53.3024 28.9901L53.9863 30.198L54.2914 30.4557L55.2536 32.2033L55.5843 32.4354L55.7417 31.3462L55.5926 30.3712L55.7471 30.0128L55.6043 27.448L55.6115 25.653L55.6179 24.0632L55.6262 22.0118Z" fill="url(#paint0_linear_2941_58)"></path><path d="M4.46699 43.4539L23.4476 46.1697L17.9697 40.6093L4.46699 43.4539Z" fill="#AA8765"></path><path d="M19.5196 26.9597L26.2996 38.9158L39.7657 36.1623L30.4898 46.3051L37.2698 58.2612L24.7571 52.5737L15.4812 62.7165L17.0238 49.0586L4.511 43.371L17.9771 40.6175L19.5196 26.9597Z" fill="#C89D72"></path><path d="M23.3345 46.1787L19.5199 26.9664L26.3287 38.9002L23.3345 46.1787Z" fill="#7A461E" fill-opacity="0.5"></path><path d="M39.7174 36.2465L23.3263 46.195L26.2957 38.8795L39.7174 36.2465Z" fill="#F9DEC3"></path><path d="M30.4931 46.3248L23.3369 46.1789L39.8134 36.1712L30.4931 46.3248Z" fill="#5E3F25"></path><path d="M30.4662 46.3301L23.3555 46.168L37.2473 58.2349L30.4662 46.3301Z" fill="#A17248"></path><path d="M24.7161 52.5495L23.3448 46.1494L37.2473 58.235L24.7161 52.5495Z" fill="#644427"></path><path d="M23.3367 46.1438L19.5112 26.9751L17.9806 40.663L23.3367 46.1438Z" fill="#DBB99F" fill-opacity="0.5"></path><path d="M16.907 49.1026L23.4315 46.1594L4.34904 43.4226L16.907 49.1026Z" fill="#372A1D"></path><path d="M16.9337 49.0971L23.41 46.1567L15.4637 62.7686L16.9337 49.0971Z" fill="#241A11"></path><path d="M24.757 52.7098L23.4127 46.1353L15.4638 62.7686L24.757 52.7098Z" fill="#100A06"></path><path d="M21.2079 36.6141L19.5523 27.0223L20.1985 29.7742L21.0453 34.324L21.4646 35.9659L21.656 36.902L21.9695 38.8441L22.195 38.9931L22.1661 40.3504L22.4029 40.9637L22.8309 43.0566L23.0192 44.5228L23.3668 45.6777L24.6107 42.3583L25.842 39.5221L26.0778 38.631L26.3759 38.8626L25.7159 40.6768L25.1609 42.0507L25.232 42.3985L24.2619 44.3315L23.6513 45.8425L24.6135 45.2336L25.295 44.6147L26.2875 44.154L27.0435 43.7627L27.8159 43.1797L33.4558 39.9646L34.5184 39.3015L36.7402 38.0391L37.3536 37.4957L39.2654 36.3524L39.7571 36.1683L39.528 36.4102L37.5147 37.6021L37.0296 38.0914L35.6995 38.8092L30.661 41.8313L29.0724 42.7835L28.0578 43.4089L27.1255 44.1638L25.7337 44.8524L23.8075 46.0613L25.0439 45.9757L26.2274 46.0402L27.6948 46.1303L29.8472 46.1639L30.6714 46.1068L30.528 46.359L29.9766 46.3882L29.2812 46.5304L28.8266 46.6233L27.9482 46.5521L26.7538 46.4341C26.372 46.475 25.5818 46.5623 25.4748 46.5842C25.3678 46.6061 24.8832 46.3708 24.6542 46.2504L23.5729 46.2765L27.3964 49.5768L27.7988 49.7732L28.6108 50.6103L31.2117 52.837L35.8876 57.0358L36.9994 57.8395L37.2796 58.2559L36.7592 58.0279L35.0877 56.5306L34.1365 55.6941L31.57 53.3628L29.0341 51.3178L27.6149 49.964L26.9821 49.7312L25.8905 48.6169L23.5309 46.4801L23.6512 47.0685L24.0268 48.4964L24.313 49.0788L24.3112 49.8872L24.4999 50.81L24.663 52.0166L25.0541 52.7029L24.7724 52.5515L24.7064 52.774L24.2766 51.6219L24.2005 50.2999L23.501 48.2417L23.4239 46.502L22.9218 47.3849L22.6914 47.9614L21.0229 51.5209L20.3988 52.6934L19.9456 53.7474L19.6586 54.2519L19.1966 55.1266L19.1127 55.5339L18.5972 56.4195L18.4069 56.9878L17.8549 58.1038L17.0159 59.7243L16.1405 61.5752L15.4924 62.7665L15.7399 61.7964L16.5047 60.3583L17.4002 58.1968L18.0592 57.0589L18.303 56.4796L18.8659 55.4171L18.965 54.8117L19.5985 53.9577L20.1314 52.7481L20.418 52.0208L22.4165 48.2405L22.427 47.4861L22.8452 47.0104L23.1992 46.3529L22.4343 46.7044L21.4727 47.1796L20.5423 47.5928L18.6886 48.4177L16.8881 49.2874L16.8443 49.0734L17.4583 48.6692L18.5488 48.2791L23.1664 46.1924L22.314 46.1159L20.7857 45.8642L19.1273 45.7087L17.965 45.4239L13.1804 44.9185L12.4194 44.7397L11.6213 44.6521L11.0165 44.6922L10.6621 44.4581L9.23668 44.1645L8.70176 44.2738L8.33159 44.0987L6.55848 43.8761L4.85468 43.5837L4.37205 43.4037L4.55927 43.3654L5.43275 43.549L6.12875 43.5461L6.60044 43.6725L18.5266 45.3091L20.1335 45.5935L22.5181 45.9558L22.9302 45.9272L22.5376 45.506L22.2802 45.4054L22.0884 45.0127L21.752 44.5938L21.2291 44.0808L20.9244 43.8853L20.7385 43.589L18.9226 41.6754L18.5947 41.3663L18.2561 41.0733L18.1334 40.8476L17.846 40.6347L17.9597 40.6114L17.981 40.5792L19.3925 41.9698L20.4538 43.0132L21.2592 43.9256L21.5681 44.0917L22.7099 45.4166L23.0363 45.5561L22.9771 44.5942L22.6742 43.7853L22.7432 43.4503L22.1614 41.2776L21.8466 39.7377L21.5677 38.3739L21.2079 36.6141Z" fill="url(#paint1_linear_2941_58)"></path><path d="M75.9028 12.9206L91.6667 23.8357L89.2526 16.4129L75.9028 12.9206Z" fill="#AA8765"></path><path d="M96.7415 4.89633L97.4609 18.6222L110.737 22.1796L97.9054 27.1053L98.6248 40.8311L89.975 30.1495L77.1432 35.0752L84.6291 23.5479L75.9792 12.8662L89.2556 16.4236L96.7415 4.89633Z" fill="#C89D72"></path><path d="M91.5616 23.7931L96.7388 4.9024L97.4939 18.6211L91.5616 23.7931Z" fill="#7A461E" fill-opacity="0.5"></path><path d="M110.657 22.2332L91.547 23.804L97.4738 18.5878L110.657 22.2332Z" fill="#F9DEC3"></path><path d="M97.8997 27.1241L91.5638 23.7942L110.776 22.2086L97.8997 27.1241Z" fill="#5E3F25"></path><path d="M97.8732 27.1171L91.5852 23.793L98.6165 40.7975L97.8732 27.1171Z" fill="#A17248"></path><path d="M89.9493 30.1094L91.584 23.7715L98.6165 40.7975L89.9493 30.1094Z" fill="#644427"></path><path d="M91.5791 23.7628L96.7271 4.90625L89.2385 16.4657L91.5791 23.7628Z" fill="#DBB99F" fill-opacity="0.5"></path><path d="M84.505 23.5349L91.657 23.8191L75.8114 12.8397L84.505 23.5349Z" fill="#372A1D"></path><path d="M84.5313 23.5419L91.6389 23.8071L77.1042 35.1138L84.5313 23.5419Z" fill="#241A11"></path><path d="M89.9141 30.271L91.6509 23.7891L77.1043 35.1137L89.9141 30.271Z" fill="#100A06"></path><path d="M93.9354 14.2871L96.7427 4.9672L96.0905 7.71762L94.8138 12.166L94.4548 13.8221L94.2075 14.745L93.6197 16.6224L93.7548 16.8565L93.122 18.0577L93.0597 18.7122L92.5068 20.7756L92.0198 22.1713L91.8144 23.3598L94.4111 20.9467L96.7804 18.9602L97.3897 18.2685L97.5529 18.609L96.1514 19.9367L95.0407 20.9175L94.9488 21.2603L93.2169 22.5557L91.9952 23.6343L93.1281 23.5198L94.0144 23.271L95.1082 23.3026L95.9593 23.2905L96.9109 23.1144L103.393 22.7599L104.64 22.6418L107.192 22.506L107.983 22.2941L110.205 22.1262L110.727 22.1814L110.414 22.2953L108.08 22.4613L107.427 22.6821L105.917 22.7295L100.059 23.1802L98.2119 23.3217L97.0248 23.4276L95.8533 23.686L94.3006 23.6797L92.0371 23.8999L93.1813 24.3761L94.2111 24.9629L95.4834 25.6995L97.3937 26.6918L98.1565 27.0093L97.9154 27.1708L97.4092 26.9503L96.7236 26.7666L96.2753 26.6465L95.5215 26.1902L94.5058 25.5506C94.1461 25.4165 93.4002 25.1413 93.2947 25.113C93.1893 25.0848 92.8609 24.6577 92.7099 24.4476L91.731 23.9875L93.6756 28.649L93.9478 29.0045L94.2999 30.1163L95.6308 33.271L97.9363 39.1173L98.5714 40.3332L98.6359 40.8309L98.2724 40.3944L97.4466 38.3078L96.9697 37.1343L95.7162 33.9015L94.3622 30.9385L93.6979 29.093L93.236 28.6019L92.7577 27.1171L91.6024 24.1509L91.447 24.731L91.1446 26.1761L91.1403 26.825L90.7771 27.5473L90.5334 28.4571L90.1398 29.6093L90.1829 30.3981L89.9985 30.1367L89.8401 30.3062L89.9707 29.0835L90.4936 27.867L90.7881 25.7132L91.497 24.1226L90.6531 24.6878L90.1892 25.1005L87.1054 27.5385L86.023 28.3084L85.1463 29.0485L84.6641 29.3715L83.8598 29.9473L83.6026 30.2741L82.7456 30.8358L82.3213 31.2591L81.3286 32.0106L79.8536 33.085L78.2431 34.3492L77.1308 35.1252L77.7858 34.368L79.1129 33.4235L80.8803 31.8904L81.9785 31.1673L82.4555 30.7581L83.4341 30.0594L83.7934 29.5621L84.7418 29.0814L85.7593 28.2377L86.3409 27.7152L89.8185 25.2273L90.1652 24.5571L90.752 24.3187L91.3626 23.8888L90.5213 23.8612L89.4486 23.8564L88.4317 23.81L86.4048 23.7191L84.4054 23.6921L84.4619 23.4811L85.1918 23.3941L86.3417 23.5326L91.405 23.7306L90.6767 23.281L89.4222 22.3726L88.0083 21.4921L87.0959 20.7177L83.0421 18.1265L82.4413 17.6264L81.7666 17.1912L81.2077 16.9566L80.9953 16.5889L79.8516 15.6889L79.3242 15.5476L79.0714 15.2255L77.5849 14.2336L76.1916 13.2103L75.8403 12.8335L76.0249 12.883L76.7241 13.4378L77.348 13.7462L77.7134 14.0702L87.6497 20.8661L88.9598 21.8389L90.9309 23.229L91.3123 23.3878L91.1494 22.8354L90.9642 22.6303L90.9682 22.1933L90.8545 21.6683L90.6162 20.9756L90.431 20.6645L90.3972 20.3163L89.6284 17.7928L89.4733 17.3697L89.3015 16.9562L89.2925 16.6995L89.1307 16.3805L89.2428 16.4106L89.2762 16.3913L89.9171 18.2662L90.4 19.674L90.7124 20.8503L90.9145 21.1369L91.3435 22.8324L91.5731 23.1032L91.9502 22.2163L92.0409 21.3573L92.2524 21.0886L92.7034 18.8849L93.1102 17.3668L93.4705 16.0222L93.9354 14.2871Z" fill="url(#paint2_linear_2941_58)"></path><defs><linearGradient id="paint0_linear_2941_58" x1="56.2052" y1="24.3407" x2="49.8803" y2="40.5058" gradientUnits="userSpaceOnUse"><stop stop-color="#F3D0AD"></stop><stop offset="0.766277" stop-color="#372A1D"></stop><stop offset="1" stop-color="#3C3125"></stop></linearGradient><linearGradient id="paint1_linear_2941_58" x1="22.1233" y1="38.5062" x2="19.618" y2="53.5079" gradientUnits="userSpaceOnUse"><stop stop-color="#F3D0AD"></stop><stop offset="0.766277" stop-color="#372A1D"></stop><stop offset="1" stop-color="#3C3125"></stop></linearGradient><linearGradient id="paint2_linear_2941_58" x1="93.9083" y1="16.3889" x2="84.9604" y2="28.6878" gradientUnits="userSpaceOnUse"><stop stop-color="#F3D0AD"></stop><stop offset="0.766277" stop-color="#372A1D"></stop><stop offset="1" stop-color="#3C3125"></stop></linearGradient></defs></svg>