<svg xmlns="http://www.w3.org/2000/svg" width="172" height="30" viewBox="0 0 172 30" fill="none"><path d="M11.2445 19.6229C11.2688 19.6927 11.3459 19.7286 11.415 19.7022L11.9604 19.494C12.0278 19.4682 12.0617 19.3929 12.0363 19.3254L11.2453 17.2225C11.2129 17.1362 11.2118 17.0413 11.2422 16.9543L16.6833 1.40348H21.3673L13.281 23.2823H8.33763L0.0834961 1.40348H4.90477L11.2445 19.6229Z" fill="white"></path><path fill-rule="evenodd" clip-rule="evenodd" d="M57.6682 22.9301H61.6679V0.566895H57.6682V22.9301ZM23.4643 4.08582C23.4101 4.10753 23.3465 4.17597 23.323 4.23785C23.2977 4.30433 23.2802 4.99846 23.2802 5.93255V7.51469H21.3673V22.9301H25.3669V8.64371H26.3914C27.3959 8.64371 27.5514 8.62529 27.6378 8.49606C27.6554 8.46979 27.6697 7.50058 27.6697 6.34225C27.6697 5.18392 27.6554 4.2147 27.6378 4.18843C27.5453 4.05004 27.4085 4.04079 25.4893 4.04353C24.4297 4.04505 23.5184 4.06407 23.4643 4.08582ZM36.3398 7.0134C35.3316 7.16986 34.566 7.57592 33.8131 8.35364C33.4258 8.75378 33.0733 9.2664 32.882 9.70798C32.8255 9.83829 32.7646 9.94529 32.7467 9.94568C32.7287 9.94607 32.7141 9.37974 32.7141 8.68713V7.42784H28.7579V22.9301H32.7141L32.7142 19.0545C32.7143 16.781 32.7332 14.9277 32.7598 14.571C32.8137 13.8499 32.9257 13.2632 33.1098 12.7391C33.5565 11.4674 34.2911 10.7337 35.1937 10.6577C36.7161 10.5296 37.4324 12.0573 36.7601 13.9985C36.6923 14.1939 36.6243 14.4084 36.6089 14.4749C36.5647 14.6653 36.6611 14.9338 36.8439 15.1296L37.0116 15.3092L38.5613 15.3217C40.0794 15.3339 40.1141 15.3323 40.2613 15.2413C40.344 15.1903 40.4473 15.0772 40.4909 14.99C40.7272 14.5173 40.9767 13.6621 41.0821 12.9639C41.1586 12.4566 41.1694 11.2577 41.1016 10.8015C40.8714 9.25376 39.9988 7.94102 38.8023 7.3426C38.0894 6.98605 37.2442 6.87306 36.3398 7.0134ZM47.93 6.9976C47.3691 7.05479 46.5461 7.22501 46.0541 7.38559C45.4699 7.57626 44.4093 8.11546 43.9717 8.44426C43.4412 8.8428 42.7978 9.52568 42.6314 9.86686C42.4102 10.3202 42.3516 10.6318 42.3755 11.2274C42.4041 11.9383 42.5166 12.1879 42.8961 12.3824C43.046 12.4591 43.1701 12.465 44.648 12.465H46.2385L46.3452 12.3584C46.4326 12.2711 46.4519 12.2087 46.4519 12.0132C46.4519 11.2891 46.6846 10.8974 47.3264 10.5415C47.8005 10.2786 48.0365 10.2288 48.7995 10.231C49.6023 10.2332 49.8894 10.2938 50.4932 10.5881C51.0299 10.8498 51.4117 11.2146 51.6396 11.6834C51.8618 12.1404 51.932 12.4468 51.9607 13.0838L51.9856 13.6374H49.7211C48.4756 13.6374 47.206 13.6584 46.8998 13.6842C44.9754 13.8458 43.5897 14.3829 42.6233 15.3417C42.2392 15.7228 42.0209 16.0219 41.7846 16.4909C41.2058 17.6398 41.2026 19.2226 41.7768 20.4415C41.9933 20.9013 42.2505 21.261 42.6245 21.6274C43.5623 22.546 44.6935 22.9852 46.4442 23.1103C47.9859 23.2204 49.2888 22.9576 50.2365 22.3454C50.9627 21.8762 51.4844 21.3709 51.9337 20.7016C52.0751 20.4909 52.1992 20.3443 52.2094 20.3759C52.2196 20.4074 52.299 20.9218 52.3859 21.5188C52.4727 22.1159 52.5536 22.6386 52.5657 22.6804C52.5861 22.7511 52.7056 22.7564 54.2802 22.7564H55.9727L55.9724 17.7735C55.972 12.7978 55.9616 12.3921 55.8154 11.664C55.4732 9.9594 54.4627 8.63389 52.8885 7.8246C52.1005 7.41946 51.3825 7.19852 50.3995 7.05865C49.825 6.97693 48.4631 6.94323 47.93 6.9976ZM47.4885 16.2209C47.0678 16.2916 46.8847 16.3504 46.5686 16.5162C45.2506 17.2075 45.209 18.985 46.4948 19.6695C46.945 19.9092 47.3439 19.9904 48.0604 19.9885C48.81 19.9863 49.1879 19.9043 49.7525 19.6213C50.4862 19.2535 51.1876 18.3862 51.5681 17.3765C51.6585 17.1365 51.886 16.2871 51.8861 16.1886C51.8862 16.1295 47.8562 16.159 47.4885 16.2209Z" fill="white"></path><path d="M167.19 6.68532C168.494 6.68532 169.539 7.13361 170.323 8.03019C171.108 8.91659 171.5 10.0883 171.5 11.5452C171.5 12.8188 171.22 14.0159 170.659 15.1366H166.243C166.844 14.1178 167.144 13.2008 167.144 12.3857C167.144 11.7744 166.992 11.2905 166.686 10.9339C166.391 10.5671 165.983 10.3837 165.463 10.3837C164.689 10.3837 164.052 10.8167 163.553 11.6827C163.054 12.5488 162.804 13.6899 162.804 15.1061V22.8085H158.571V7.15908H162.804V9.81826C163.212 8.8198 163.792 8.05057 164.546 7.51058C165.3 6.96041 166.182 6.68532 167.19 6.68532Z" fill="white"></path><path d="M152.369 16.2265L156.659 16.2265C156.659 16.2265 156.512 17.8511 155.587 19.306C154.666 20.7476 153.277 21.8468 151.418 22.6036C149.087 23.5524 146.942 23.6062 144.982 22.7649C143.023 21.9235 141.572 20.3469 140.631 18.035C139.69 15.723 139.632 13.5798 140.456 11.6052C141.289 9.62676 142.857 8.16889 145.16 7.23156C146.198 6.80899 147.217 6.57006 148.218 6.51477C149.214 6.45004 150.115 6.56753 150.919 6.86723C151.728 7.15366 152.46 7.58719 153.115 8.16782C153.775 8.73517 154.284 9.44629 154.643 10.3012C155.008 11.1428 155.243 12.0977 155.348 13.1661L147.291 16.2265L145.17 17.3091C145.742 18.3084 146.449 18.9776 147.291 19.3168C148.129 19.6466 149.063 19.6021 150.091 19.1834C150.818 18.8876 151.377 18.4897 151.767 17.9897C152.163 17.4765 152.364 16.8888 152.369 16.2265ZM146.469 10.527C145.544 10.9034 144.891 11.4608 144.509 12.1991C144.124 12.928 144.029 13.8027 144.224 14.8232L150.551 12.2474C150.275 11.3258 149.777 10.7092 149.056 10.3977C148.341 10.0728 147.478 10.1159 146.469 10.527Z" fill="white"></path><path d="M117.549 6.68532C118.1 6.68532 118.604 6.74645 119.062 6.86871C119.521 6.99097 119.913 7.14889 120.239 7.34247C120.565 7.52587 120.856 7.77548 121.11 8.09132C121.375 8.39698 121.589 8.69244 121.752 8.97772C121.915 9.25281 122.053 9.59921 122.165 10.0169C122.287 10.4245 122.374 10.7709 122.425 11.0562C122.476 11.3312 122.516 11.6827 122.547 12.1107C122.577 12.5386 122.593 12.8544 122.593 13.0582C122.603 13.262 122.608 13.537 122.608 13.8835V22.8085H118.359V13.914C118.359 13.6287 118.354 13.4046 118.344 13.2416C118.344 13.0786 118.329 12.8493 118.298 12.5539C118.268 12.2584 118.222 12.0241 118.161 11.8509C118.11 11.6675 118.023 11.4637 117.901 11.2396C117.779 11.0052 117.631 10.8269 117.458 10.7047C117.295 10.5722 117.081 10.4601 116.816 10.3684C116.551 10.2767 116.25 10.2309 115.914 10.2309C114.895 10.2309 114.055 10.6843 113.393 11.5911C112.741 12.4876 112.415 13.6593 112.415 15.1061V22.8085H108.181V7.15908L112.415 9.94053C112.873 8.91149 113.545 8.1117 114.432 7.54115C115.328 6.9706 116.368 6.68532 117.549 6.68532Z" fill="white"></path><path d="M133.44 6.68532C133.99 6.68532 134.494 6.74645 134.953 6.86871C135.411 6.99097 135.803 7.14889 136.13 7.34247C136.456 7.52587 136.746 7.77548 137.001 8.09132C137.266 8.39698 137.479 8.69244 137.643 8.97772C137.806 9.25281 137.943 9.59921 138.055 10.0169C138.177 10.4245 138.264 10.7709 138.315 11.0562C138.366 11.3312 138.407 11.6827 138.437 12.1107C138.468 12.5386 138.483 12.8544 138.483 13.0582C138.493 13.262 138.498 13.537 138.498 13.8835V22.8085H134.25V13.914C134.25 13.6287 134.245 13.4046 134.234 13.2416C134.234 13.0786 134.219 12.8493 134.189 12.5539C134.158 12.2584 134.112 12.0241 134.051 11.8509C134 11.6675 133.914 11.4637 133.791 11.2396C133.669 11.0052 133.521 10.8269 133.348 10.7047C133.185 10.5722 132.971 10.4601 132.706 10.3684C132.441 10.2767 132.141 10.2309 131.805 10.2309C130.786 10.2309 129.945 10.6843 129.283 11.5911C128.631 12.4876 128.305 13.6593 128.305 15.1061V22.8085H124.072V7.15908L128.305 9.94053C128.763 8.91149 129.436 8.1117 130.322 7.54115C131.219 6.9706 132.258 6.68532 133.44 6.68532Z" fill="white"></path><path d="M99.4891 6.68532C101.832 6.68532 103.62 7.33229 104.853 8.62622C106.096 9.92015 106.718 11.6929 106.718 13.9446V22.8085H102.897V20.1188C101.695 22.2278 99.8202 23.2823 97.2731 23.2823C95.6022 23.2823 94.2777 22.8442 93.2996 21.968C92.3317 21.0918 91.8478 19.9659 91.8478 18.5905C91.8478 17.0113 92.4896 15.7734 93.7734 14.8768C95.0673 13.9701 96.8248 13.5167 99.0459 13.5167C100.228 13.5167 101.364 13.6287 102.454 13.8529C102.423 11.479 101.425 10.292 99.4585 10.292C98.6434 10.292 98.027 10.4856 97.6093 10.8728C97.2018 11.2497 97.0642 11.7846 97.1967 12.4774H92.9481C92.6832 11.316 92.8208 10.2869 93.3607 9.39035C93.9007 8.49377 94.7056 7.82133 95.7754 7.37304C96.8554 6.91456 98.0933 6.68532 99.4891 6.68532ZM98.2359 20.0576C99.2242 20.0576 100.105 19.7724 100.88 19.2018C101.654 18.6313 102.225 17.862 102.591 16.8941C101.552 16.5783 100.508 16.4204 99.4585 16.4204C97.2273 16.4204 96.1116 17.0775 96.1116 18.3918C96.1116 18.9318 96.295 19.3444 96.6618 19.6297C97.0388 19.915 97.5635 20.0576 98.2359 20.0576Z" fill="white"></path><path d="M90.3843 22.8085H86.1663V0.566895H90.3843V22.8085Z" fill="white"></path><path d="M77.5047 6.68532C79.6137 6.68532 81.3406 7.44945 82.6855 8.97772C84.0304 10.506 84.7028 12.508 84.7028 14.9838C84.7028 17.4596 84.0304 19.4616 82.6855 20.9899C81.3508 22.5182 79.6341 23.2823 77.5353 23.2823C75.2123 23.2823 73.4395 22.3398 72.2169 20.455V29.0744H67.9836V7.15908L72.2169 9.51261C73.4395 7.62775 75.2021 6.68532 77.5047 6.68532ZM76.2515 19.645C77.4639 19.645 78.442 19.2171 79.1858 18.3613C79.9397 17.4952 80.3167 16.3694 80.3167 14.9838C80.3167 13.5982 79.9397 12.4825 79.1858 11.6369C78.442 10.7811 77.4639 10.3532 76.2515 10.3532C75.0289 10.3532 74.0508 10.776 73.3172 11.6216C72.5837 12.4673 72.2169 13.588 72.2169 14.9838C72.2169 16.3796 72.5837 17.5054 73.3172 18.3613C74.0508 19.2171 75.0289 19.645 76.2515 19.645Z" fill="white"></path></svg>