<svg xmlns="http://www.w3.org/2000/svg" width="177" height="177" viewBox="0 0 177 177" fill="none"><path d="M130.853 101.736C130.511 101.571 117.68 95.2532 115.4 94.4326C114.469 94.0983 113.472 93.772 112.411 93.772C110.679 93.772 109.223 94.6355 108.089 96.3315C106.808 98.2366 102.928 102.772 101.729 104.127C101.572 104.306 101.359 104.519 101.231 104.519C101.116 104.519 99.13 103.702 98.5289 103.441C84.7649 97.4618 74.3175 83.084 72.8849 80.6595C72.6803 80.3109 72.6717 80.1526 72.67 80.1526C72.7203 79.968 73.1832 79.504 73.422 79.2646C74.1209 78.5732 74.878 77.6618 75.6106 76.78C75.9575 76.3623 76.3049 75.944 76.646 75.5498C77.7089 74.3132 78.182 73.3532 78.7306 72.2412L79.018 71.6635C80.3575 69.0023 79.2135 66.7566 78.8437 66.0315C78.5403 65.4246 73.1226 52.3492 72.5466 50.9755C71.1615 47.6606 69.3312 46.1172 66.7877 46.1172C66.5517 46.1172 66.7877 46.1172 65.798 46.1589C64.5929 46.2098 58.03 47.0738 55.1283 48.9029C52.0512 50.8429 46.8455 57.0269 46.8455 67.9023C46.8455 77.6903 53.0569 86.932 55.7237 90.4469C55.79 90.5355 55.9117 90.7155 56.0883 90.9738C66.3015 105.889 79.0335 116.943 91.9403 122.099C104.366 127.062 110.25 127.636 113.595 127.636C115.001 127.636 116.127 127.526 117.119 127.428L117.749 127.368C122.041 126.987 131.475 122.099 133.62 116.137C135.311 111.44 135.756 106.309 134.632 104.446C133.861 103.18 132.534 102.543 130.853 101.736Z" fill="url(#paint0_linear_676_403)"></path><path d="M90.1847 0.603516C42.5184 0.603516 3.739 39.0915 3.739 86.3995C3.739 101.701 7.83385 116.678 15.591 129.787L0.743569 173.584C0.466997 174.401 0.672712 175.304 1.27671 175.918C1.71271 176.364 2.30414 176.604 2.90814 176.604C3.13957 176.604 3.37271 176.569 3.60014 176.496L49.2687 161.984C61.7659 168.661 75.8904 172.186 90.1853 172.186C137.847 172.186 176.622 133.702 176.622 86.3995C176.622 39.0915 137.847 0.603516 90.1847 0.603516ZM90.1847 154.314C76.7339 154.314 63.7058 150.43 52.507 143.082C52.1304 142.834 51.6933 142.708 51.2533 142.708C51.0207 142.708 50.7876 142.743 50.5607 142.815L27.6836 150.087L35.0687 128.299C35.3076 127.594 35.1881 126.816 34.7481 126.215C26.2201 114.562 21.7121 100.795 21.7121 86.3995C21.7121 48.9464 52.4287 18.4755 90.1841 18.4755C127.935 18.4755 158.648 48.9464 158.648 86.3995C158.649 123.848 127.936 154.314 90.1847 154.314Z" fill="url(#paint1_linear_676_403)"></path><defs><linearGradient id="paint0_linear_676_403" x1="88.6225" y1="0.603516" x2="88.6225" y2="176.604" gradientUnits="userSpaceOnUse"><stop stop-color="#0DA452"></stop><stop offset="1" stop-color="#053E1F" stop-opacity="0"></stop></linearGradient><linearGradient id="paint1_linear_676_403" x1="88.6225" y1="0.603516" x2="88.6225" y2="176.604" gradientUnits="userSpaceOnUse"><stop stop-color="#0DA452"></stop><stop offset="1" stop-color="#053E1F" stop-opacity="0"></stop></linearGradient></defs></svg>